<svg width="70" height="70" viewBox="0 0 70 70" fill="none" xmlns="http://www.w3.org/2000/svg">
<rect y="0.000488281" width="70" height="70" rx="5" fill="#BBBBBB"/>
<rect x="4" y="6.00098" width="61" height="61" rx="11" fill="#333333"/>
<path d="M27.626 27.4829C27.626 23.6652 25.0293 23.6652 25.0293 23.6652H14.3652V31.8498H24.3681C26.0957 31.8498 27.626 31.2953 27.626 27.4829Z" fill="#BBBBBB"/>
<path d="M25.0293 37.5071H14.3652V47.3074H24.5494C26.0797 47.2647 28.911 46.7742 28.911 42.5405C28.895 37.4751 25.0293 37.5071 25.0293 37.5071Z" fill="#BBBBBB"/>
<path d="M52.3663 31.8498C46.6983 31.8498 45.9092 37.5017 45.9092 37.5017H57.9596C57.9596 37.5017 58.0342 31.8498 52.3663 31.8498Z" fill="#BBBBBB"/>
<path d="M61.0685 2.90222H10.6808C8.61757 2.90222 6.63884 3.72184 5.17991 5.18076C3.72098 6.63969 2.90137 8.61842 2.90137 10.6817V61.064C2.90137 63.1272 3.72098 65.106 5.17991 66.5649C6.63884 68.0238 8.61757 68.8434 10.6808 68.8434H61.0632C63.1264 68.8434 65.1051 68.0238 66.564 66.5649C68.023 65.106 68.8426 63.1272 68.8426 61.064V10.6817C68.8426 8.61934 68.0237 6.64142 66.5659 5.18265C65.1082 3.72388 63.1308 2.90364 61.0685 2.90222ZM44.3312 19.3035H59.4635V23.8251H44.3312V19.3035ZM36.6798 42.9991C36.6798 54.1964 25.0293 53.8284 25.0293 53.8284H5.94062V17.1441H25.0293C30.8305 17.1441 35.4108 20.3433 35.4108 26.9124C35.4108 33.4814 29.8121 33.892 29.8121 33.892C37.1917 33.892 36.6798 42.9991 36.6798 42.9991ZM64.9875 42.4019H46.0055C46.0055 49.2162 52.4626 48.8003 52.4626 48.8003C58.5571 48.8003 58.3278 44.8546 58.3278 44.8546H64.7742C64.7742 55.3267 52.2227 54.6069 52.2227 54.6069C37.1597 54.6069 38.1301 40.5837 38.1301 40.5837C38.1301 40.5837 38.1301 26.4911 52.2227 26.4911C67.0724 26.4805 64.9929 42.4019 64.9929 42.4019H64.9875Z" fill="#BBBBBB"/>
</svg>
