<svg width="50" height="50" viewBox="0 0 50 50" fill="none" xmlns="http://www.w3.org/2000/svg">
<rect width="50" height="50" rx="5" fill="#B9B9B9"/>
<rect x="2.5" y="2.5" width="43.75" height="43.75" rx="5" fill="#111111"/>
<path d="M19.7327 19.6303C19.7327 16.9033 17.8779 16.9033 17.8779 16.9033H10.2607V22.7495H17.4057C18.6396 22.7495 19.7327 22.3534 19.7327 19.6303Z" fill="#B9B9B9"/>
<path d="M17.8779 26.7904H10.2607V33.7906H17.5352C18.6282 33.7601 20.6506 33.4097 20.6506 30.3857C20.6392 26.7676 17.8779 26.7904 17.8779 26.7904Z" fill="#B9B9B9"/>
<path d="M37.4042 22.7495C33.3557 22.7495 32.792 26.7866 32.792 26.7866H41.3994C41.3994 26.7866 41.4527 22.7495 37.4042 22.7495Z" fill="#B9B9B9"/>
<path d="M43.6202 2.07263H7.629C6.15526 2.07263 4.74189 2.65807 3.6998 3.70016C2.65771 4.74225 2.07227 6.15563 2.07227 7.62937V43.6168C2.07227 45.0905 2.65771 46.5039 3.6998 47.546C4.74189 48.5881 6.15526 49.1735 7.629 49.1735H43.6164C45.0901 49.1735 46.5035 48.5881 47.5456 47.546C48.5877 46.5039 49.1731 45.0905 49.1731 43.6168V7.62937C49.1731 6.15629 48.5882 4.74349 47.547 3.70151C46.5057 2.65953 45.0933 2.07364 43.6202 2.07263ZM31.665 13.7879H42.4738V17.0176H31.665V13.7879ZM26.1997 30.7133C26.1997 38.7113 17.8779 38.4485 17.8779 38.4485H4.24316V12.2454H17.8779C22.0217 12.2454 25.2933 14.5305 25.2933 19.2227C25.2933 23.9149 21.2942 24.2082 21.2942 24.2082C26.5653 24.2082 26.1997 30.7133 26.1997 30.7133ZM46.4195 30.2867H32.8609C32.8609 35.1541 37.4731 34.857 37.4731 34.857C41.8264 34.857 41.6626 32.0386 41.6626 32.0386H46.2672C46.2672 39.5187 37.3018 39.0046 37.3018 39.0046C26.5425 39.0046 27.2356 28.988 27.2356 28.988C27.2356 28.988 27.2356 18.9218 37.3018 18.9218C47.9087 18.9142 46.4233 30.2867 46.4233 30.2867H46.4195Z" fill="#B9B9B9"/>
</svg>
