<svg width="40" height="40" viewBox="0 0 40 40" fill="none" xmlns="http://www.w3.org/2000/svg">
<path d="M3 40C2.2 40 1.5 39.6842 0.9 39.0526C0.3 38.4211 0 37.6842 0 36.8421V11.5789C0 10.7368 0.3 10 0.9 9.36842C1.5 8.73684 2.2 8.42105 3 8.42105H12V3.15789C12 2.31579 12.3 1.57895 12.9 0.947368C13.5 0.315789 14.2 0 15 0H25C25.8 0 26.5 0.315789 27.1 0.947368C27.7 1.57895 28 2.31579 28 3.15789V8.42105H37C37.8 8.42105 38.5 8.73684 39.1 9.36842C39.7 10 40 10.7368 40 11.5789V36.8421C40 37.6842 39.7 38.4211 39.1 39.0526C38.5 39.6842 37.8 40 37 40H3ZM15 8.42105H25V3.15789H15V8.42105ZM37 26.7895H24.55V29.9474H15.55V26.7895H3V36.8421H37V26.7895ZM18.55 26.7895H21.55V23.6316H18.55V26.7895ZM3 23.6316H15.55V20.4737H24.55V23.6316H37V11.5789H3V23.6316Z" fill="#B9B9B9"/>
</svg>
