<svg width="70" height="70" viewBox="0 0 70 70" fill="none" xmlns="http://www.w3.org/2000/svg">
<path d="M0 3C0 1.34315 1.34315 0 3 0H67C68.6569 0 70 1.34315 70 3V22H0V3Z" fill="#BBBBBB"/>
<path d="M0 52H70V67C70 68.6569 68.6569 70 67 70H3C1.34315 70 0 68.6569 0 67V52Z" fill="#BBBBBB"/>
<g clip-path="url(#clip0_67_1298)">
<path d="M0 35.0008V55.6419H35H70V35.0008V14.3598H35H0V35.0008ZM16.3675 22.3852C18.8291 22.6162 20.7692 23.7583 22.0727 25.7374C22.8034 26.8534 23.3162 28.3748 23.4573 29.8526C23.5214 30.4934 23.5214 43.0088 23.4615 43.6758C23.1282 47.2896 20.953 50.049 17.7991 50.8642C16.594 51.1737 16.1667 51.1955 11.359 51.1955H7.30769V36.7663V22.3372H11.594C14.2906 22.3372 16.0598 22.3546 16.3675 22.3852ZM40.7179 24.9179L40.7265 27.4811L36.1667 27.4898L31.6026 27.5029V30.8378V34.1726L34.3932 34.1857L37.1795 34.1944V36.7663V39.3383L34.3932 39.347L31.6026 39.3601V42.6949V46.0298L36.1667 46.0428L40.7265 46.0515L40.7179 48.6148L40.7051 51.1737H35.0641H29.4231L29.0897 51.0734C27.906 50.7247 27.0299 49.8397 26.6581 48.6148L26.5598 48.2966L26.547 36.9189C26.5385 26.6311 26.5427 25.5064 26.6026 25.1925C26.8889 23.7322 28.047 22.5988 29.4658 22.3808C29.5855 22.3634 32.1624 22.3503 35.1923 22.3546L40.7051 22.359L40.7179 24.9179ZM49.7607 24.1594C50.0171 25.1576 50.5684 27.3111 50.9829 28.9415C52.2094 33.7236 53.2479 37.7777 53.8034 39.9486C54.0855 41.0646 54.3333 42.0149 54.3547 42.0585C54.3761 42.1239 54.4359 41.9495 54.5641 41.4264C54.6624 41.034 55.0513 39.5039 55.4274 38.0305C55.8034 36.5571 56.235 34.857 56.3889 34.2598C56.5427 33.6582 56.9316 32.1194 57.2607 30.8378C58.5812 25.6677 59.0299 23.8935 59.218 23.1655C59.3248 22.747 59.4188 22.3895 59.4316 22.3677C59.4402 22.3503 60.7009 22.3372 62.2265 22.3372C64.8547 22.3372 65.0043 22.3416 64.9829 22.4113C64.9573 22.4985 64.5086 24.203 64.0641 25.9118C63.5769 27.7994 62.5513 31.7401 61.4957 35.7855C60.953 37.8692 60.218 40.6853 59.8675 42.041C58.2692 48.1701 58.4316 47.5904 58.1496 48.1658C57.3633 49.7744 56.3974 50.7465 55.2222 51.1083C54.953 51.1911 54.8419 51.1998 54.3675 51.1867C53.7051 51.165 53.3291 51.0516 52.7564 50.7072C52.2479 50.4021 51.4573 49.6087 51.0769 49.0158C50.7051 48.4448 50.3291 47.6645 50.2222 47.2503C50.0556 46.6052 48.547 40.803 48.3761 40.1666C48.2863 39.8178 47.9701 38.6103 47.6752 37.4856C47.1197 35.3452 46.4017 32.5945 44.7479 26.2562C44.2051 24.1768 43.7607 22.4462 43.7607 22.407C43.7607 22.3416 44.0128 22.3372 46.5299 22.3372H49.2949L49.7607 24.1594Z" fill="#BBBBBB"/>
<path d="M12.7 36.8404L12.7128 45.9426H14.3581C15.9478 45.9426 16.0162 45.9382 16.341 45.8423C17.2384 45.5764 17.9222 45.0228 18.3282 44.2207C18.6786 43.5363 18.6529 44.1248 18.6529 36.8971C18.6529 29.6738 18.6743 30.2144 18.3324 29.4646C18.029 28.7976 17.6059 28.353 16.9863 28.0478C16.3965 27.7601 16.247 27.7427 14.3623 27.7427H12.6914L12.7 36.8404Z" fill="#BBBBBB"/>
</g>
<defs>
<clipPath id="clip0_67_1298">
<rect width="70" height="41.2821" fill="white" transform="translate(0 14.3598)"/>
</clipPath>
</defs>
</svg>
