<svg width="101" height="81" viewBox="0 0 101 81" fill="none" xmlns="http://www.w3.org/2000/svg">
<path d="M100.57 5.0625V25.3125L50.2852 45.5625L0 25.3125V5.0625C0 3.71984 0.529789 2.43218 1.47282 1.48277C2.41585 0.53337 3.69488 0 5.02852 0H95.5419C96.8756 0 98.1546 0.53337 99.0976 1.48277C100.041 2.43218 100.57 3.71984 100.57 5.0625ZM0 36.2171V75.9375C0 77.2802 0.529789 78.5678 1.47282 79.5172C2.41585 80.4666 3.69488 81 5.02852 81H95.5419C96.8756 81 98.1546 80.4666 99.0976 79.5172C100.041 78.5678 100.57 77.2802 100.57 75.9375V36.2171L50.2852 56.4671L0 36.2171Z" fill="#BBBBBB"/>
</svg>
