<svg width="50" height="50" viewBox="0 0 50 50" fill="none" xmlns="http://www.w3.org/2000/svg">
<rect width="50" height="50" rx="5" fill="#B9B9B9"/>
<path fill-rule="evenodd" clip-rule="evenodd" d="M24.9998 5C13.9557 5 5 14.1804 5 25.5063C5 34.5669 10.7306 42.2532 18.6771 44.9651C19.6763 45.1553 20.0433 44.5202 20.0433 43.9786C20.0433 43.4896 20.0247 41.8743 20.0161 40.1608C14.4521 41.4012 13.2781 37.7413 13.2781 37.7413C12.3683 35.371 11.0574 34.7408 11.0574 34.7408C9.24253 33.4681 11.1942 33.4945 11.1942 33.4945C13.2022 33.6389 14.26 35.6077 14.26 35.6077C16.0438 38.742 18.9387 37.836 20.08 37.3124C20.2595 35.987 20.7778 35.0821 21.3498 34.57C16.9076 34.0521 12.2375 32.2935 12.2375 24.436C12.2375 22.1972 13.0191 20.3679 14.2985 18.9315C14.0905 18.4153 13.4059 16.3296 14.4919 13.505C14.4919 13.505 16.171 12.9539 19.9929 15.607C21.5886 15.1523 23.2998 14.9238 24.9998 14.916C26.6988 14.9238 28.4111 15.1516 30.0097 15.6063C33.827 12.9532 35.5042 13.5044 35.5042 13.5044C36.5928 16.3286 35.9082 18.4146 35.7005 18.9308C36.9829 20.3672 37.7589 22.1965 37.7589 24.4353C37.7589 32.3115 33.0802 34.0453 28.6267 34.5533C29.3444 35.1897 29.9836 36.438 29.9836 38.3508C29.9836 41.0946 29.9604 43.3029 29.9604 43.9783C29.9604 44.524 30.3207 45.1634 31.3342 44.962C39.2761 42.2475 45 34.5635 45 25.5063C44.9997 14.1811 36.045 5 24.9998 5Z" fill="#111111"/>
<path d="M12.8114 34.6987C12.7673 34.8006 12.611 34.8311 12.4686 34.7615C12.3229 34.695 12.2417 34.5561 12.2888 34.4539C12.3318 34.3486 12.4885 34.3197 12.6332 34.39C12.7789 34.4569 12.8617 34.5972 12.811 34.699L12.8114 34.6987ZM13.6215 35.6254C13.5264 35.7161 13.3399 35.674 13.2134 35.5303C13.0823 35.3877 13.0578 35.1965 13.1548 35.1045C13.2535 35.0142 13.4343 35.0569 13.5655 35.1996C13.696 35.3442 13.7218 35.5337 13.6218 35.6257L13.6215 35.6254ZM14.4104 36.8061C14.2878 36.8937 14.0871 36.8119 13.9632 36.6295C13.8407 36.4468 13.8407 36.2278 13.9666 36.1405C14.0901 36.0529 14.2878 36.132 14.4137 36.3127C14.5355 36.4978 14.5355 36.7171 14.4104 36.8061ZM15.4904 37.9474C15.3811 38.0714 15.1472 38.0381 14.9764 37.8693C14.8018 37.7039 14.7531 37.4686 14.8628 37.345C14.974 37.2207 15.2088 37.2554 15.3807 37.4231C15.5553 37.5881 15.6079 37.8238 15.491 37.9471L15.4904 37.9474ZM16.9807 38.6099C16.932 38.7706 16.7075 38.8436 16.4806 38.775C16.2544 38.7047 16.1064 38.5169 16.1527 38.3546C16.1991 38.1926 16.4253 38.1169 16.6535 38.1899C16.8797 38.2598 17.0277 38.4466 16.9807 38.6099ZM18.6178 38.7325C18.6234 38.9016 18.4313 39.0415 18.1939 39.0449C17.9544 39.0507 17.7607 38.9135 17.7583 38.7471C17.7583 38.5763 17.9465 38.4381 18.1856 38.4334C18.423 38.4289 18.6181 38.5648 18.6181 38.7322L18.6178 38.7325ZM20.1406 38.467C20.1691 38.6317 20.0038 38.8011 19.7677 38.8463C19.5358 38.8904 19.3206 38.7879 19.2908 38.6245C19.2623 38.4554 19.4305 38.286 19.6623 38.2422C19.8988 38.2004 20.1108 38.2996 20.1406 38.467Z" fill="#111111"/>
</svg>
