<svg width="45" height="45" viewBox="0 0 45 45" fill="none" xmlns="http://www.w3.org/2000/svg">
<path d="M4.64062 45C3.32812 45 2.22656 44.5547 1.33594 43.6641C0.445312 42.7734 0 41.6719 0 40.3594C0 39.0469 0.445312 37.9453 1.33594 37.0547C2.22656 36.1641 3.32812 35.7188 4.64062 35.7188C5.95312 35.7188 7.05469 36.1641 7.94531 37.0547C8.83594 37.9453 9.28125 39.0469 9.28125 40.3594C9.28125 41.6719 8.83594 42.7734 7.94531 43.6641C7.05469 44.5547 5.95312 45 4.64062 45ZM22.5 45C21.1875 45 20.0859 44.5547 19.1953 43.6641C18.3047 42.7734 17.8594 41.6719 17.8594 40.3594C17.8594 39.0469 18.3047 37.9453 19.1953 37.0547C20.0859 36.1641 21.1875 35.7188 22.5 35.7188C23.8125 35.7188 24.9141 36.1641 25.8047 37.0547C26.6953 37.9453 27.1406 39.0469 27.1406 40.3594C27.1406 41.6719 26.6953 42.7734 25.8047 43.6641C24.9141 44.5547 23.8125 45 22.5 45ZM40.3594 45C39.0469 45 37.9453 44.5547 37.0547 43.6641C36.1641 42.7734 35.7188 41.6719 35.7188 40.3594C35.7188 39.0469 36.1641 37.9453 37.0547 37.0547C37.9453 36.1641 39.0469 35.7188 40.3594 35.7188C41.6719 35.7188 42.7734 36.1641 43.6641 37.0547C44.5547 37.9453 45 39.0469 45 40.3594C45 41.6719 44.5547 42.7734 43.6641 43.6641C42.7734 44.5547 41.6719 45 40.3594 45ZM4.64062 27.1406C3.32812 27.1406 2.22656 26.6953 1.33594 25.8047C0.445312 24.9141 0 23.8125 0 22.5C0 21.1875 0.445312 20.0859 1.33594 19.1953C2.22656 18.3047 3.32812 17.8594 4.64062 17.8594C5.95312 17.8594 7.05469 18.3047 7.94531 19.1953C8.83594 20.0859 9.28125 21.1875 9.28125 22.5C9.28125 23.8125 8.83594 24.9141 7.94531 25.8047C7.05469 26.6953 5.95312 27.1406 4.64062 27.1406ZM22.5 27.1406C21.1875 27.1406 20.0859 26.6953 19.1953 25.8047C18.3047 24.9141 17.8594 23.8125 17.8594 22.5C17.8594 21.1875 18.3047 20.0859 19.1953 19.1953C20.0859 18.3047 21.1875 17.8594 22.5 17.8594C23.8125 17.8594 24.9141 18.3047 25.8047 19.1953C26.6953 20.0859 27.1406 21.1875 27.1406 22.5C27.1406 23.8125 26.6953 24.9141 25.8047 25.8047C24.9141 26.6953 23.8125 27.1406 22.5 27.1406ZM40.3594 27.1406C39.0469 27.1406 37.9453 26.6953 37.0547 25.8047C36.1641 24.9141 35.7188 23.8125 35.7188 22.5C35.7188 21.1875 36.1641 20.0859 37.0547 19.1953C37.9453 18.3047 39.0469 17.8594 40.3594 17.8594C41.6719 17.8594 42.7734 18.3047 43.6641 19.1953C44.5547 20.0859 45 21.1875 45 22.5C45 23.8125 44.5547 24.9141 43.6641 25.8047C42.7734 26.6953 41.6719 27.1406 40.3594 27.1406ZM4.64062 9.28125C3.32812 9.28125 2.22656 8.83594 1.33594 7.94531C0.445312 7.05469 0 5.95312 0 4.64062C0 3.32812 0.445312 2.22656 1.33594 1.33594C2.22656 0.445312 3.32812 0 4.64062 0C5.95312 0 7.05469 0.445312 7.94531 1.33594C8.83594 2.22656 9.28125 3.32812 9.28125 4.64062C9.28125 5.95312 8.83594 7.05469 7.94531 7.94531C7.05469 8.83594 5.95312 9.28125 4.64062 9.28125ZM22.5 9.28125C21.1875 9.28125 20.0859 8.83594 19.1953 7.94531C18.3047 7.05469 17.8594 5.95312 17.8594 4.64062C17.8594 3.32812 18.3047 2.22656 19.1953 1.33594C20.0859 0.445312 21.1875 0 22.5 0C23.8125 0 24.9141 0.445312 25.8047 1.33594C26.6953 2.22656 27.1406 3.32812 27.1406 4.64062C27.1406 5.95312 26.6953 7.05469 25.8047 7.94531C24.9141 8.83594 23.8125 9.28125 22.5 9.28125ZM40.3594 9.28125C39.0469 9.28125 37.9453 8.83594 37.0547 7.94531C36.1641 7.05469 35.7188 5.95312 35.7188 4.64062C35.7188 3.32812 36.1641 2.22656 37.0547 1.33594C37.9453 0.445312 39.0469 0 40.3594 0C41.6719 0 42.7734 0.445312 43.6641 1.33594C44.5547 2.22656 45 3.32812 45 4.64062C45 5.95312 44.5547 7.05469 43.6641 7.94531C42.7734 8.83594 41.6719 9.28125 40.3594 9.28125Z" fill="#B9B9B9"/>
</svg>
