<svg width="28" height="40" viewBox="0 0 28 40" fill="none" xmlns="http://www.w3.org/2000/svg">
<path d="M14 39.2253C10.0667 39.2253 6.75 37.9548 4.05 35.4136C1.35 32.8725 0 29.7509 0 26.049V13.8138C0 10.1119 1.35 6.99039 4.05 4.44924C6.75 1.90809 10.0667 0.637512 14 0.637512C17.9333 0.637512 21.25 1.90809 23.95 4.44924C26.65 6.99039 28 10.1119 28 13.8138V26.049C28 29.7509 26.65 32.8725 23.95 35.4136C21.25 37.9548 17.9333 39.2253 14 39.2253ZM15.5 13.8138H25C25 11.2727 24.1167 9.0139 22.35 7.03745C20.5833 5.061 18.3 3.90022 15.5 3.55513V13.8138ZM3 13.8138H12.5V3.55513C9.7 3.90022 7.41667 5.061 5.65 7.03745C3.88333 9.0139 3 11.2727 3 13.8138ZM13.9895 36.4018C17.0298 36.4018 19.625 35.3924 21.775 33.3736C23.925 31.3548 25 28.9133 25 26.049V16.6373H3V26.049C3 28.9133 4.0715 31.3548 6.2145 33.3736C8.3575 35.3924 10.9492 36.4018 13.9895 36.4018Z" fill="#B9B9B9"/>
</svg>
