<svg width="50" height="50" viewBox="0 0 50 50" fill="none" xmlns="http://www.w3.org/2000/svg">
<mask id="mask0_173_28" style="mask-type:luminance" maskUnits="userSpaceOnUse" x="0" y="0" width="50" height="50">
<path d="M50 0H0V50H50V0Z" fill="white"/>
</mask>
<g mask="url(#mask0_173_28)">
<path d="M25.0006 35.4166C30.7536 35.4166 35.4173 30.7529 35.4173 25C35.4173 19.247 30.7536 14.5833 25.0006 14.5833C19.2477 14.5833 14.584 19.247 14.584 25C14.584 30.7529 19.2477 35.4166 25.0006 35.4166Z" stroke="#BBBBBB" stroke-width="3.5" stroke-linecap="round" stroke-linejoin="round"/>
<path d="M25 2.08332V6.24999" stroke="#BBBBBB" stroke-width="3.5" stroke-linecap="round" stroke-linejoin="round"/>
<path d="M25 43.75V47.9167" stroke="#BBBBBB" stroke-width="3.5" stroke-linecap="round" stroke-linejoin="round"/>
<path d="M8.79102 8.79164L11.7494 11.75" stroke="#BBBBBB" stroke-width="3.5" stroke-linecap="round" stroke-linejoin="round"/>
<path d="M38.25 38.25L41.2083 41.2084" stroke="#BBBBBB" stroke-width="3.5" stroke-linecap="round" stroke-linejoin="round"/>
<path d="M2.08398 25H6.25065" stroke="#BBBBBB" stroke-width="3.5" stroke-linecap="round" stroke-linejoin="round"/>
<path d="M43.75 25H47.9166" stroke="#BBBBBB" stroke-width="3.5" stroke-linecap="round" stroke-linejoin="round"/>
<path d="M8.79102 41.2084L11.7494 38.25" stroke="#BBBBBB" stroke-width="3.5" stroke-linecap="round" stroke-linejoin="round"/>
<path d="M38.25 11.75L41.2083 8.79164" stroke="#BBBBBB" stroke-width="3.5" stroke-linecap="round" stroke-linejoin="round"/>
</g>
</svg>
