<svg width="100" height="100" viewBox="0 0 100 100" fill="none" xmlns="http://www.w3.org/2000/svg">
<path d="M50.0002 0C22.4307 0 0.000322659 22.4304 0.000322659 50C0.000322659 58.6087 2.22423 67.0739 6.44161 74.5435L0.0807571 97.2391C-0.127938 97.9848 0.0742356 98.7848 0.613364 99.3391C1.02858 99.7674 1.5938 100 2.17423 100C2.34814 100 2.52423 99.9783 2.69597 99.937L26.3828 94.0696C33.6154 97.9522 41.7611 100 50.0002 100C77.5696 100 100 77.5696 100 50C100 22.4304 77.5696 0 50.0002 0ZM75.1523 67.6435C74.0827 70.6043 68.9523 73.3065 66.4871 73.6696C64.274 73.9935 61.474 74.1326 58.4001 73.1674C56.5371 72.5804 54.1458 71.8022 51.0828 70.4957C38.2067 65.0043 29.7981 52.2022 29.1546 51.3565C28.5133 50.5109 23.9133 44.4848 23.9133 38.2478C23.9133 32.0109 27.2285 28.9435 28.4068 27.6739C29.585 26.4043 30.9741 26.087 31.8307 26.087C32.6872 26.087 33.5415 26.0978 34.2915 26.1326C35.0806 26.1717 36.1393 25.8348 37.1806 28.3087C38.2502 30.8478 40.8176 37.0848 41.135 37.7217C41.4567 38.3565 41.6698 39.0978 41.2437 39.9435C40.8176 40.7891 40.6045 41.3174 39.9611 42.0587C39.3176 42.8 38.6132 43.7109 38.035 44.2804C37.3915 44.913 36.7241 45.5978 37.4719 46.8674C38.2198 48.137 40.7958 52.287 44.6132 55.6478C49.5154 59.9652 53.6523 61.3043 54.9349 61.9391C56.2175 62.5739 56.9675 62.4674 57.7154 61.6217C58.4632 60.7739 60.924 57.9196 61.7784 56.6522C62.6327 55.3848 63.4893 55.5935 64.6675 56.0174C65.8458 56.4391 72.1566 59.5043 73.4392 60.1391C74.7218 60.7739 75.5783 61.0913 75.9001 61.6196C76.2218 62.1456 76.2218 64.6848 75.1523 67.6435Z" fill="#BBBBBB"/>
</svg>
