<svg width="100" height="100" viewBox="0 0 100 100" fill="none" xmlns="http://www.w3.org/2000/svg">
<path d="M69.7143 4.5749H63.9455L69.9447 11.0851V14.1843H57.5885V10.5554H63.5869L57.5885 4.04521V0.942871H69.7143V4.5749ZM55.1385 4.5749H49.3697L55.3689 11.0851V14.1843H43.0119V10.5554H49.0111L43.0119 4.04521V0.942871H55.1385V4.5749ZM40.7057 4.72334H34.4807V10.4038H40.7057V14.1843H30.0557V0.942871H40.7057V4.72334Z" fill="#555555"/>
<path d="M21.5729 91.1767L15.2471 20.229H84.7525L78.4213 91.1649L49.9572 99.0571L21.5729 91.1767Z" fill="#1572B6"/>
<path d="M50.001 93.025L73.0002 86.6485L78.4111 26.0305H50.001V93.025Z" fill="#33A9DC"/>
<path d="M50 51.7343H61.5141L62.3102 42.8241H50V34.1226H71.8195L71.6109 36.4569L69.4727 60.4351H50V51.7343Z" fill="white"/>
<path d="M50.0525 74.3327L50.0143 74.3437L40.3236 71.7265L39.7033 64.7866H30.9697L32.1893 78.4491L50.0127 83.3968L50.0533 83.3851L50.0525 74.3327Z" fill="#EBEBEB"/>
<path d="M60.7746 60.0671L59.7262 71.7203L50.0215 74.3398V83.3929L67.8598 78.4492L67.991 76.9789L69.5051 60.0671H60.7746Z" fill="white"/>
<path d="M50.0301 34.1226V42.8233H29.0121L28.8371 40.8679L28.441 36.4569L28.2324 34.1226H50.0301ZM49.9996 51.7351V60.4366H40.4316L40.2574 58.4812L39.8605 54.0694L39.652 51.7351H49.9996Z" fill="#EBEBEB"/>
</svg>
