<svg width="100" height="100" viewBox="0 0 100 100" fill="none" xmlns="http://www.w3.org/2000/svg">
<path d="M0 71.3385H3.31406V58.2549L8.44375 69.6596C9.04766 71.0424 9.875 71.5276 11.5016 71.5276C13.1281 71.5276 13.9219 71.0424 14.5258 69.6596L19.6555 58.2549V71.3377H22.9695V58.2768C22.9695 57.001 22.4602 56.3846 21.407 56.0674C18.8891 55.283 17.2016 55.9604 16.4359 57.6604L11.4039 68.9182L6.53047 57.6604C5.79844 55.9604 4.07734 55.283 1.5625 56.0674C0.509375 56.3846 0 57.001 0 58.2768L0 71.3385ZM25.7266 60.6877H29.0375V67.8963C29.007 68.2869 29.1625 69.2057 30.9781 69.2361H38.1836V60.651H41.5039C41.5195 60.651 41.4977 72.3572 41.4977 72.4065C41.5156 75.2932 37.918 75.919 36.2578 75.9682H25.7969V73.7401L36.2766 73.7369C38.4094 73.5143 38.1562 72.4518 38.1562 72.0979V71.2283H31.1156C27.8383 71.1979 25.7539 69.7666 25.7266 68.1213C25.7234 67.9721 25.7969 60.7611 25.7266 60.6877Z" fill="#00618A"/>
<path d="M44.0554 71.3384H53.5828C54.6968 71.3384 55.7804 71.1032 56.6406 70.7009C58.075 70.0446 58.7734 69.1509 58.7734 67.9821V65.5618C58.7734 64.6063 57.9796 63.7126 56.4171 63.1204C55.5898 62.8001 54.5679 62.6321 53.582 62.6321H49.5656C48.2289 62.6321 47.5914 62.229 47.4328 61.3384C47.4023 61.2313 47.4023 61.1462 47.4023 61.0392V59.5313C47.4023 59.4462 47.4023 59.3603 47.4328 59.254C47.5914 58.5767 47.9421 58.3845 49.1203 58.2774L49.4406 58.2563H58.9007V56.0501H49.6C48.2632 56.0501 47.5617 56.1353 46.9234 56.3251C44.9492 56.9415 44.0882 57.9181 44.0882 59.6181V61.5501C44.0882 63.036 45.7757 64.3118 48.6109 64.6079L49.5664 64.6509H53.0085C53.1367 64.6509 53.2617 64.6509 53.3593 64.672C54.4093 64.7571 54.8546 64.9493 55.175 65.3313C55.3398 65.4837 55.4343 65.7009 55.4281 65.9235V67.8587C55.4281 68.0907 55.2695 68.3899 54.9523 68.6431C54.6656 68.8993 54.1867 69.0673 53.5515 69.1103L53.2007 69.1313H44.0554V71.3384ZM79.4437 67.4931C79.4437 69.7665 81.1343 71.0392 84.5398 71.2954L85.4984 71.3384H94.132V69.129H85.4343C83.4906 69.129 82.7578 68.6407 82.7578 67.472V56.0454H79.4468V67.4923L79.4437 67.4931ZM60.889 67.6087V59.7321C60.889 57.7329 62.296 56.5189 65.0726 56.1368C65.3689 56.094 65.6678 56.0726 65.9671 56.0728H72.2539C72.5742 56.0728 72.8609 56.0939 73.182 56.1368C75.9593 56.5181 77.3632 57.7329 77.3632 59.7321V67.6087C77.3632 69.2321 76.7679 70.0993 75.3921 70.6665L78.6578 73.6118H74.8093L72.1695 71.2282L69.5117 71.3962H65.9687C65.3102 71.3938 64.6552 71.3013 64.0218 71.1212C61.9132 70.5478 60.8906 69.4399 60.8906 67.6087H60.889ZM64.4656 67.4165C64.4656 67.5235 64.496 67.6298 64.5296 67.7587C64.7218 68.6743 65.5828 69.1837 66.8914 69.1837H69.9007L67.1359 66.6876H70.9843L73.3953 68.8665C73.8406 68.6282 74.1304 68.2681 74.2343 67.8017C74.2648 67.6946 74.2648 67.5884 74.2648 67.4813V59.9282C74.2648 59.8431 74.2648 59.736 74.2343 59.629C74.0421 58.7774 73.1812 58.2892 71.9031 58.2892H66.8921C65.4242 58.2892 64.4664 58.9267 64.4664 59.9282L64.4656 67.4165Z" fill="#E48E00"/>
<path d="M97.046 52.3803C95.0108 52.3256 93.4538 52.5147 92.1233 53.0764C91.7452 53.235 91.1405 53.2381 91.0796 53.7116C91.2874 53.9311 91.321 54.2576 91.4858 54.5233C91.803 55.0389 92.3405 55.7256 92.8194 56.0858L94.4397 57.2451C95.4343 57.8522 96.5483 58.2006 97.51 58.8076C98.0749 59.1678 98.6358 59.6194 99.1882 60.0256C99.46 60.2241 99.6429 60.5381 99.9999 60.6631V60.6053C99.814 60.367 99.7647 60.0405 99.5936 59.7936L98.8397 59.0397C98.1046 58.0631 97.1702 57.2053 96.1757 56.4912C95.3819 55.9233 93.6124 55.1545 93.2796 54.2326L93.2218 54.1748C93.7835 54.1139 94.4429 53.9092 94.9585 53.7717C95.8311 53.5366 96.6093 53.5975 97.5069 53.3655L98.7249 53.0147V52.7858C98.2702 52.3186 97.9468 51.7022 97.4491 51.278C96.1554 50.1764 94.739 49.0717 93.2804 48.1498C92.4718 47.6405 91.4741 47.3108 90.6163 46.8772C90.3296 46.7311 89.8225 46.6576 89.6304 46.4131C89.1819 45.8397 88.9374 45.1131 88.5897 44.4444L86.5054 40.0436C86.0663 39.0397 85.7788 38.0475 85.2296 37.1475C82.6022 32.8233 79.7702 30.2139 75.3843 27.6506C74.4538 27.1045 73.3272 26.8905 72.1436 26.61L70.2304 26.4944C69.8429 26.3295 69.4397 25.8537 69.0741 25.6248C67.6218 24.7061 63.8952 22.7108 62.8179 25.335C62.1405 26.992 63.8343 28.6092 64.4413 29.4491C64.8655 30.0381 65.4116 30.6975 65.7139 31.3592C65.9155 31.7928 65.9491 32.2287 66.1202 32.6897C66.5413 33.8248 66.9077 35.0576 67.4538 36.1076C67.7288 36.6389 68.0304 37.1975 68.3788 37.6701C68.5921 37.96 68.9585 38.0912 69.0163 38.5397C68.6593 39.0405 68.6382 39.8155 68.4366 40.4498C67.5304 43.303 67.8718 46.8491 69.1905 48.9639C69.5936 49.6108 70.5452 51.0022 71.8546 50.4686C72.9991 50.0014 72.7429 48.5584 73.0694 47.2826C73.146 46.9959 73.0999 46.7819 73.2436 46.5897V46.6475L74.2874 48.7319C75.0593 49.9741 76.4264 51.2709 77.5866 52.1467C78.1905 52.6014 78.6639 53.3889 79.4421 53.6545V53.5936H79.3843C79.2319 53.3616 78.9968 53.2639 78.8046 53.0748C78.3499 52.6295 77.846 52.0772 77.4741 51.567C76.4179 50.1358 75.4843 48.567 74.6358 46.9342C74.2296 46.1561 73.8757 45.2951 73.5343 44.5022C73.403 44.1967 73.4061 43.7334 73.1311 43.5772C72.7561 44.1569 72.2038 44.6272 71.9132 45.3139C71.4491 46.4092 71.3913 47.7491 71.2171 49.135L71.1015 49.1928C70.296 48.9975 70.0116 48.1678 69.7132 47.4561C68.953 45.6553 68.8132 42.753 69.4811 40.6811C69.6522 40.1444 70.4335 38.453 70.1163 37.9592C69.9671 37.4647 69.4694 37.178 69.1913 36.7998C68.8277 36.2928 68.517 35.7499 68.2639 35.1795C67.6444 33.7725 67.3546 32.1983 66.7014 30.7787C66.3905 30.0983 65.8624 29.4116 65.4288 28.8076C64.9468 28.1397 64.4093 27.6483 64.0374 26.8389C63.9061 26.5522 63.7264 26.0912 63.9218 25.7951C63.9827 25.5967 64.0741 25.5147 64.2694 25.4506C64.6054 25.1912 65.5421 25.5358 65.8897 25.6795C66.8202 26.067 67.596 26.4334 68.3827 26.9553C68.7577 27.2053 69.1397 27.6905 69.5975 27.8248H70.1194C70.9343 28.0108 71.8468 27.8795 72.61 28.1116C73.9561 28.5201 75.1647 29.1584 76.2569 29.8514C79.5952 31.9569 82.3241 34.9569 84.1913 38.5366C84.4936 39.1131 84.6218 39.6623 84.8874 40.2733C85.4218 41.5061 86.0929 42.7756 86.6241 43.9811C87.1554 45.1866 87.671 46.3983 88.4186 47.3991C88.8124 47.9241 90.335 48.2045 91.0249 48.4975C91.51 48.7022 92.3038 48.9155 92.7616 49.1936C93.6405 49.7217 94.489 50.3498 95.3132 50.9303C95.7218 51.2233 96.9858 51.8584 97.0499 52.3795L97.046 52.3803ZM71.1577 30.3162C70.8073 30.3103 70.4576 30.3491 70.1171 30.4319V30.4897H70.1749C70.3764 30.9076 70.7335 31.1764 70.9835 31.5334L71.5632 32.7483L71.621 32.6936C71.9811 32.4405 72.1429 32.0342 72.1429 31.4178C71.9968 31.2655 71.978 31.0764 71.853 30.8959C71.6882 30.6545 71.3686 30.5209 71.1577 30.3162Z" fill="#00618A"/>
</svg>
