<svg width="100" height="100" viewBox="0 0 100 100" fill="none" xmlns="http://www.w3.org/2000/svg">
<path d="M49.5241 9.56874C46.2257 9.58436 43.0773 9.86483 40.3054 10.3555C32.1413 11.7976 30.6601 14.8164 30.6601 20.3844V27.7367H49.9515V30.1875H23.4194C17.8132 30.1875 12.9038 33.557 11.3679 39.9695C9.59601 47.3172 9.51788 51.9031 11.3679 59.5758C12.739 65.2875 16.014 69.3562 21.621 69.3562H28.2546V60.5422C28.2546 54.1742 33.7632 48.5578 40.3062 48.5578H59.5757C64.9398 48.5578 69.221 44.1406 69.221 38.7547V20.3851C69.221 15.1562 64.8101 11.2289 59.5757 10.3562C56.2601 9.80467 52.8218 9.55389 49.5241 9.56874ZM39.0913 15.482C41.0835 15.482 42.7116 17.1359 42.7116 19.1703C42.7116 21.1961 41.0843 22.8344 39.0913 22.8344C37.0913 22.8344 35.4718 21.1961 35.4718 19.1703C35.471 17.1359 37.0913 15.482 39.0913 15.482Z" fill="url(#paint0_linear_23_76)"/>
<path d="M71.6266 30.1875V38.7547C71.6266 45.3954 65.9953 50.9852 59.575 50.9852H40.3055C35.0273 50.9852 30.6602 55.5032 30.6602 60.7891V79.1602C30.6602 84.3876 35.2055 87.4633 40.3055 88.9626C46.4117 90.7571 52.268 91.0821 59.575 88.9626C64.4312 87.5555 69.2203 84.7258 69.2203 79.1602V71.8071H49.9516V69.3555H78.8672C84.4734 69.3555 86.5641 65.4454 88.5141 59.5751C90.5281 53.5321 90.4414 47.7204 88.5141 39.9688C87.1281 34.3868 84.482 30.1868 78.8672 30.1868L71.6266 30.1875ZM60.7883 76.7086C62.7891 76.7086 64.4086 78.3469 64.4086 80.3743C64.4086 82.4071 62.7883 84.061 60.7883 84.061C58.7961 84.061 57.1688 82.4071 57.1688 80.3743C57.1688 78.3469 58.7961 76.7086 60.7883 76.7086Z" fill="url(#paint1_linear_23_76)"/>
<path opacity="0.444" d="M76.0226 93.4352C76.0226 96.2031 64.4476 98.4477 50.1703 98.4477C35.8921 98.4477 24.3171 96.2031 24.3171 93.4352C24.3171 90.6664 35.8914 88.4219 50.1703 88.4219C64.4476 88.4219 76.0226 90.6656 76.0226 93.4352Z" fill="url(#paint2_radial_23_76)"/>
<defs>
<linearGradient id="paint0_linear_23_76" x1="8.0756" y1="11.8677" x2="52.5707" y2="49.8129" gradientUnits="userSpaceOnUse">
<stop stop-color="#5A9FD4"/>
<stop offset="1" stop-color="#306998"/>
</linearGradient>
<linearGradient id="paint1_linear_23_76" x1="69.3116" y1="73.4003" x2="53.3549" y2="51.0237" gradientUnits="userSpaceOnUse">
<stop stop-color="#FFD43B"/>
<stop offset="1" stop-color="#FFE873"/>
</linearGradient>
<radialGradient id="paint2_radial_23_76" cx="0" cy="0" r="1" gradientUnits="userSpaceOnUse" gradientTransform="translate(50.0658 93.2916) rotate(-90) scale(5.01431 22.0421)">
<stop stop-color="#B8B8B8" stop-opacity="0.498"/>
<stop offset="1" stop-color="#7F7F7F" stop-opacity="0"/>
</radialGradient>
</defs>
</svg>
