<svg width="70" height="70" viewBox="0 0 70 70" fill="none" xmlns="http://www.w3.org/2000/svg">
<rect y="0.000488281" width="70" height="70" rx="5" fill="white"/>
<rect x="4" y="6.00098" width="61" height="61" rx="11" fill="#BBBBBB"/>
<path d="M27.6265 27.4829C27.6265 23.6652 25.0298 23.6652 25.0298 23.6652H14.3657V31.8498H24.3686C26.0962 31.8498 27.6265 31.2953 27.6265 27.4829Z" fill="white"/>
<path d="M25.0298 37.5071H14.3657V47.3074H24.5499C26.0802 47.2647 28.9115 46.7742 28.9115 42.5405C28.8955 37.4751 25.0298 37.5071 25.0298 37.5071Z" fill="white"/>
<path d="M52.3672 31.8498C46.6993 31.8498 45.9102 37.5017 45.9102 37.5017H57.9605C57.9605 37.5017 58.0352 31.8498 52.3672 31.8498Z" fill="white"/>
<path d="M61.069 2.90222H10.6813C8.61805 2.90222 6.63932 3.72184 5.1804 5.18076C3.72147 6.63969 2.90186 8.61842 2.90186 10.6817V61.064C2.90186 63.1272 3.72147 65.106 5.1804 66.5649C6.63932 68.0238 8.61805 68.8434 10.6813 68.8434H61.0636C63.1269 68.8434 65.1056 68.0238 66.5645 66.5649C68.0235 65.106 68.8431 63.1272 68.8431 61.064V10.6817C68.8431 8.61934 68.0242 6.64142 66.5664 5.18265C65.1086 3.72388 63.1313 2.90364 61.069 2.90222ZM44.3317 19.3035H59.464V23.8251H44.3317V19.3035ZM36.6803 42.9991C36.6803 54.1964 25.0298 53.8284 25.0298 53.8284H5.94111V17.1441H25.0298C30.831 17.1441 35.4112 20.3433 35.4112 26.9124C35.4112 33.4814 29.8126 33.892 29.8126 33.892C37.1921 33.892 36.6803 42.9991 36.6803 42.9991ZM64.988 42.4019H46.006C46.006 49.2162 52.4631 48.8003 52.4631 48.8003C58.5576 48.8003 58.3283 44.8546 58.3283 44.8546H64.7747C64.7747 55.3267 52.2231 54.6069 52.2231 54.6069C37.1602 54.6069 38.1306 40.5837 38.1306 40.5837C38.1306 40.5837 38.1306 26.4911 52.2231 26.4911C67.0728 26.4805 64.9934 42.4019 64.9934 42.4019H64.988Z" fill="white"/>
</svg>
