<svg width="50" height="50" viewBox="0 0 50 50" fill="none" xmlns="http://www.w3.org/2000/svg">
<rect width="50" height="50" rx="5" fill="#545454"/>
<rect x="2.5" y="2.5" width="43.75" height="43.75" rx="5" fill="white"/>
<path d="M19.7332 19.6303C19.7332 16.9033 17.8784 16.9033 17.8784 16.9033H10.2612V22.7495H17.4062C18.6401 22.7495 19.7332 22.3534 19.7332 19.6303Z" fill="#545454"/>
<path d="M17.8784 26.7904H10.2612V33.7906H17.5356C18.6287 33.7601 20.6511 33.4097 20.6511 30.3857C20.6396 26.7676 17.8784 26.7904 17.8784 26.7904Z" fill="#545454"/>
<path d="M37.4052 22.7495C33.3566 22.7495 32.793 26.7866 32.793 26.7866H41.4004C41.4004 26.7866 41.4537 22.7495 37.4052 22.7495Z" fill="#545454"/>
<path d="M43.6207 2.07263H7.62949C6.15575 2.07263 4.74237 2.65807 3.70028 3.70016C2.65819 4.74225 2.07275 6.15563 2.07275 7.62937V43.6168C2.07275 45.0905 2.65819 46.5039 3.70028 47.546C4.74237 48.5881 6.15575 49.1735 7.62949 49.1735H43.6169C45.0906 49.1735 46.504 48.5881 47.5461 47.546C48.5882 46.5039 49.1736 45.0905 49.1736 43.6168V7.62937C49.1736 6.15629 48.5887 4.74349 47.5474 3.70151C46.5062 2.65953 45.0938 2.07364 43.6207 2.07263ZM31.6655 13.7879H42.4743V17.0176H31.6655V13.7879ZM26.2002 30.7133C26.2002 38.7113 17.8784 38.4485 17.8784 38.4485H4.24365V12.2454H17.8784C22.0222 12.2454 25.2937 14.5305 25.2937 19.2227C25.2937 23.9149 21.2947 24.2082 21.2947 24.2082C26.5658 24.2082 26.2002 30.7133 26.2002 30.7133ZM46.42 30.2867H32.8614C32.8614 35.1541 37.4736 34.857 37.4736 34.857C41.8268 34.857 41.6631 32.0386 41.6631 32.0386H46.2677C46.2677 39.5187 37.3022 39.0046 37.3022 39.0046C26.543 39.0046 27.2361 28.988 27.2361 28.988C27.2361 28.988 27.2361 18.9218 37.3022 18.9218C47.9092 18.9142 46.4238 30.2867 46.4238 30.2867H46.42Z" fill="#545454"/>
</svg>
