<svg width="50" height="50" viewBox="0 0 50 50" fill="none" xmlns="http://www.w3.org/2000/svg">
<path d="M0 3C0 1.34315 1.34315 0 3 0H47C48.6569 0 50 1.34315 50 3V15H0V3Z" fill="#545454"/>
<path d="M0 37H50V47C50 48.6569 48.6569 50 47 50H3C1.34315 50 0 48.6569 0 47V37Z" fill="#545454"/>
<g clip-path="url(#clip0_15_104)">
<path d="M0 25.0001V39.7437H25H50V25.0001V10.2565H25H0V25.0001ZM11.6911 15.9889C13.4493 16.154 14.8352 16.9698 15.7662 18.3834C16.2882 19.1805 16.6545 20.2672 16.7552 21.3228C16.801 21.7805 16.801 30.7201 16.7582 31.1965C16.5201 33.7778 14.9664 35.7488 12.7137 36.331C11.8529 36.5521 11.5476 36.5677 8.11355 36.5677H5.21978V26.2612V15.9547H8.28144C10.2076 15.9547 11.4713 15.9671 11.6911 15.9889ZM29.0842 17.798L29.0904 19.6289L25.8333 19.6351L22.5733 19.6445V22.0265V24.4085L24.5665 24.4179L26.5568 24.4241V26.2612V28.0983L24.5665 28.1045L22.5733 28.1139V30.4959V32.8779L25.8333 32.8872L29.0904 32.8935L29.0842 34.7244L29.0751 36.5521H25.0458H21.0165L20.7784 36.4805C19.9328 36.2314 19.3071 35.5993 19.0415 34.7244L18.9713 34.4971L18.9621 26.3702C18.956 19.0217 18.9591 18.2184 19.0018 17.9942C19.2064 16.9511 20.0336 16.1415 21.047 15.9858C21.1325 15.9734 22.9731 15.964 25.1374 15.9671L29.0751 15.9703L29.0842 17.798ZM35.5433 17.2562C35.7265 17.9693 36.1203 19.5075 36.4164 20.672C37.2924 24.0878 38.0342 26.9836 38.431 28.5342C38.6325 29.3313 38.8095 30.0101 38.8248 30.0413C38.84 30.088 38.8828 29.9634 38.9744 29.5898C39.0446 29.3096 39.3223 28.2166 39.591 27.1642C39.8596 26.1117 40.1679 24.8974 40.2778 24.4708C40.3877 24.0411 40.6654 22.9419 40.9005 22.0265C41.8437 18.3336 42.1642 17.0663 42.2985 16.5463C42.3748 16.2474 42.442 15.9921 42.4512 15.9765C42.4573 15.964 43.3578 15.9547 44.4475 15.9547C46.3248 15.9547 46.4316 15.9578 46.4164 16.0076C46.398 16.0699 46.0775 17.2874 45.7601 18.508C45.4121 19.8562 44.6795 22.671 43.9255 25.5606C43.5379 27.049 43.0128 29.0605 42.7625 30.0288C41.6209 34.4068 41.7369 33.9926 41.5354 34.4036C40.9737 35.5526 40.2839 36.247 39.4444 36.5054C39.2521 36.5646 39.1728 36.5708 38.8339 36.5615C38.3608 36.5459 38.0922 36.4649 37.6832 36.219C37.3199 36.001 36.7552 35.4343 36.4835 35.0108C36.2179 34.6029 35.9493 34.0456 35.873 33.7498C35.754 33.2889 34.6764 29.1445 34.5543 28.6899C34.4902 28.4408 34.2643 27.5783 34.0537 26.775C33.6569 25.2461 33.1441 23.2813 31.9628 18.754C31.5751 17.2687 31.2576 16.0325 31.2576 16.0045C31.2576 15.9578 31.4377 15.9547 33.2357 15.9547H35.2106L35.5433 17.2562Z" fill="#545454"/>
<path d="M9.07202 26.3141L9.08118 32.8156H10.2564C11.3919 32.8156 11.4408 32.8125 11.6728 32.744C12.3138 32.5541 12.8022 32.1586 13.0922 31.5857C13.3425 31.0968 13.3242 31.5172 13.3242 26.3546C13.3242 21.1951 13.3394 21.5812 13.0952 21.0457C12.8785 20.5693 12.5763 20.2516 12.1337 20.0337C11.7124 19.8282 11.6056 19.8157 10.2594 19.8157H9.06592L9.07202 26.3141Z" fill="#545454"/>
</g>
<defs>
<clipPath id="clip0_15_104">
<rect width="50" height="29.4872" fill="white" transform="translate(0 10.2565)"/>
</clipPath>
</defs>
</svg>
