<svg width="70" height="70" viewBox="0 0 70 70" fill="none" xmlns="http://www.w3.org/2000/svg">
<rect y="0.000183105" width="70" height="70" rx="5" fill="white"/>
<path fill-rule="evenodd" clip-rule="evenodd" d="M34.9998 7.00018C19.538 7.00018 7 19.8528 7 35.7091C7 48.3939 15.0228 59.1547 26.148 62.9513C27.5468 63.2175 28.0606 62.3285 28.0606 61.5703C28.0606 60.8857 28.0346 58.6242 28.0225 56.2253C20.233 57.9619 18.5893 52.838 18.5893 52.838C17.3156 49.5196 15.4804 48.6373 15.4804 48.6373C12.9395 46.8555 15.6719 46.8925 15.6719 46.8925C18.4831 47.0946 19.9641 49.851 19.9641 49.851C22.4614 54.239 26.5142 52.9706 28.112 52.2375C28.3633 50.382 29.089 49.1151 29.8897 48.3982C23.6706 47.6732 17.1325 45.211 17.1325 34.2106C17.1325 31.0762 18.2267 28.5152 20.0178 26.5042C19.7267 25.7816 18.7683 22.8617 20.2886 18.9072C20.2886 18.9072 22.6394 18.1356 27.9901 21.85C30.224 21.2134 32.6198 20.8935 34.9998 20.8825C37.3784 20.8935 39.7755 21.2125 42.0136 21.849C47.3578 18.1347 49.7058 18.9063 49.7058 18.9063C51.2299 22.8602 50.2715 25.7807 49.9808 26.5033C51.7761 28.5143 52.8624 31.0753 52.8624 34.2096C52.8624 45.2362 46.3123 47.6637 40.0774 48.3749C41.0821 49.2658 41.977 51.0134 41.977 53.6913C41.977 57.5326 41.9445 60.6242 41.9445 61.5698C41.9445 62.3338 42.449 63.229 43.8678 62.947C54.9865 59.1466 63 48.3891 63 35.7091C62.9995 19.8538 50.463 7.00018 34.9998 7.00018Z" fill="#BBBBBB"/>
<path d="M17.9354 48.5783C17.8738 48.7209 17.6549 48.7637 17.4555 48.6663C17.2515 48.5731 17.1379 48.3787 17.2038 48.2356C17.264 48.0882 17.4834 48.0478 17.686 48.1462C17.89 48.2398 18.0059 48.4362 17.935 48.5788L17.9354 48.5783ZM19.0696 49.8757C18.9365 50.0026 18.6754 49.9437 18.4983 49.7426C18.3147 49.5429 18.2804 49.2753 18.4163 49.1464C18.5544 49.02 18.8076 49.0799 18.9912 49.2795C19.1739 49.4821 19.21 49.7474 19.07 49.8762L19.0696 49.8757ZM20.174 51.5287C20.0024 51.6514 19.7215 51.5368 19.5481 51.2815C19.3765 51.0257 19.3765 50.7191 19.5527 50.5969C19.7256 50.4742 20.0024 50.585 20.1786 50.8379C20.3493 51.097 20.3493 51.4041 20.174 51.5287ZM21.686 53.1265C21.533 53.3001 21.2057 53.2535 20.9664 53.0172C20.7221 52.7857 20.6539 52.4562 20.8074 52.2832C20.9632 52.1092 21.2919 52.1577 21.5325 52.3925C21.7769 52.6236 21.8506 52.9535 21.6869 53.1261L21.686 53.1265ZM23.7725 54.0541C23.7043 54.2789 23.39 54.3811 23.0724 54.2851C22.7557 54.1867 22.5484 53.9238 22.6133 53.6966C22.6783 53.4698 22.9949 53.3638 23.3144 53.466C23.6311 53.5639 23.8383 53.8254 23.7725 54.0541ZM26.0644 54.2257C26.0723 54.4624 25.8034 54.6583 25.4709 54.6631C25.1357 54.6711 24.8644 54.4791 24.8612 54.2461C24.8612 54.007 25.1245 53.8135 25.4593 53.8069C25.7918 53.8007 26.0649 53.9908 26.0649 54.2252L26.0644 54.2257ZM28.1963 53.8539C28.2362 54.0845 28.0048 54.3217 27.6742 54.3849C27.3497 54.4467 27.0483 54.3032 27.0066 54.0745C26.9667 53.8378 27.2022 53.6005 27.5268 53.5392C27.8579 53.4807 28.1546 53.6195 28.1963 53.8539Z" fill="#BBBBBB"/>
</svg>
