<svg width="50" height="50" viewBox="0 0 50 50" fill="none" xmlns="http://www.w3.org/2000/svg">
<g clip-path="url(#clip0_22_2)">
<path d="M43.75 0H6.25C2.79822 0 0 2.79822 0 6.25V43.75C0 47.2018 2.79822 50 6.25 50H43.75C47.2018 50 50 47.2018 50 43.75V6.25C50 2.79822 47.2018 0 43.75 0Z" fill="#545454"/>
<path fill-rule="evenodd" clip-rule="evenodd" d="M24.9999 5C13.9556 5 5 14.1805 5 25.5064C5 34.5669 10.7306 42.2533 18.6771 44.9651C19.6763 45.1553 20.0432 44.5202 20.0432 43.9786C20.0432 43.4896 20.0247 41.8743 20.0161 40.1608C14.4521 41.4013 13.2781 37.7412 13.2781 37.7412C12.3683 35.371 11.0574 34.7408 11.0574 34.7408C9.24252 33.468 11.1942 33.4945 11.1942 33.4945C13.2023 33.6389 14.26 35.6077 14.26 35.6077C16.0439 38.742 18.9387 37.836 20.08 37.3124C20.2595 35.987 20.7779 35.082 21.3498 34.57C16.9076 34.0521 12.2375 32.2935 12.2375 24.436C12.2375 22.1971 13.0191 20.3679 14.2985 18.9315C14.0905 18.4152 13.4059 16.3296 14.4919 13.505C14.4919 13.505 16.171 12.9539 19.9929 15.607C21.5886 15.1524 23.2999 14.9237 24.9999 14.916C26.6989 14.9237 28.4111 15.1516 30.0097 15.6064C33.827 12.9532 35.5041 13.5044 35.5041 13.5044C36.5927 16.3286 35.9083 18.4146 35.7005 18.9307C36.9829 20.3672 37.7589 22.1965 37.7589 24.4354C37.7589 32.3115 33.0801 34.0454 28.6266 34.5534C29.3444 35.1898 29.9836 36.438 29.9836 38.3509C29.9836 41.0946 29.9604 43.3029 29.9604 43.9782C29.9604 44.524 30.3208 45.1634 31.3341 44.962C39.2761 42.2475 45 34.5635 45 25.5064C44.9996 14.1811 36.045 5 24.9999 5Z" fill="white"/>
<path d="M12.8114 34.6986C12.7674 34.8005 12.611 34.8311 12.4686 34.7615C12.3229 34.6949 12.2417 34.556 12.2888 34.4538C12.3318 34.3485 12.4885 34.3196 12.6333 34.39C12.7789 34.4569 12.8621 34.5968 12.8114 34.6986ZM13.6215 35.6254C13.5264 35.716 13.34 35.6739 13.2134 35.5303C13.0823 35.3876 13.0578 35.1965 13.1549 35.1044C13.2535 35.0141 13.4344 35.0569 13.5655 35.1995C13.696 35.3441 13.7215 35.5334 13.6215 35.6254ZM14.4104 36.806C14.2878 36.8936 14.0871 36.8118 13.9633 36.6295C13.8408 36.4468 13.8408 36.2278 13.9665 36.1405C14.0901 36.0529 14.2878 36.132 14.4136 36.3126C14.5355 36.4978 14.5355 36.7171 14.4104 36.806ZM15.4904 37.9474C15.3811 38.0713 15.1473 38.038 14.9764 37.8693C14.8019 37.7039 14.7531 37.4685 14.8628 37.345C14.974 37.2206 15.2089 37.2553 15.3808 37.423C15.5553 37.5881 15.6073 37.8241 15.4904 37.9474ZM16.9808 38.6099C16.932 38.7705 16.7075 38.8435 16.4806 38.7749C16.2544 38.7046 16.1064 38.5169 16.1528 38.3545C16.1991 38.1925 16.4253 38.1168 16.6535 38.1899C16.8798 38.2598 17.0278 38.4465 16.9808 38.6099ZM18.6178 38.7325C18.6234 38.9016 18.4314 39.0415 18.1939 39.0449C17.9544 39.0506 17.7606 38.9135 17.7584 38.747C17.7584 38.5763 17.9465 38.438 18.1856 38.4333C18.423 38.4289 18.6178 38.5651 18.6178 38.7325ZM20.1406 38.4669C20.1691 38.6316 20.0038 38.801 19.7676 38.8463C19.5359 38.8904 19.3205 38.7878 19.2908 38.6245C19.2623 38.4554 19.4305 38.2859 19.6624 38.2421C19.8989 38.2004 20.1108 38.2995 20.1406 38.4669Z" fill="white"/>
</g>
<defs>
<clipPath id="clip0_22_2">
<rect width="50" height="50" fill="white"/>
</clipPath>
</defs>
</svg>
