<svg width="35" height="35" viewBox="0 0 35 35" fill="none" xmlns="http://www.w3.org/2000/svg">
<path d="M3.60938 35C2.58854 35 1.73177 34.6536 1.03906 33.9609C0.346354 33.2682 0 32.4115 0 31.3906C0 30.3698 0.346354 29.513 1.03906 28.8203C1.73177 28.1276 2.58854 27.7812 3.60938 27.7812C4.63021 27.7812 5.48698 28.1276 6.17969 28.8203C6.8724 29.513 7.21875 30.3698 7.21875 31.3906C7.21875 32.4115 6.8724 33.2682 6.17969 33.9609C5.48698 34.6536 4.63021 35 3.60938 35ZM17.5 35C16.4792 35 15.6224 34.6536 14.9297 33.9609C14.237 33.2682 13.8906 32.4115 13.8906 31.3906C13.8906 30.3698 14.237 29.513 14.9297 28.8203C15.6224 28.1276 16.4792 27.7812 17.5 27.7812C18.5208 27.7812 19.3776 28.1276 20.0703 28.8203C20.763 29.513 21.1094 30.3698 21.1094 31.3906C21.1094 32.4115 20.763 33.2682 20.0703 33.9609C19.3776 34.6536 18.5208 35 17.5 35ZM31.3906 35C30.3698 35 29.513 34.6536 28.8203 33.9609C28.1276 33.2682 27.7812 32.4115 27.7812 31.3906C27.7812 30.3698 28.1276 29.513 28.8203 28.8203C29.513 28.1276 30.3698 27.7812 31.3906 27.7812C32.4115 27.7812 33.2682 28.1276 33.9609 28.8203C34.6536 29.513 35 30.3698 35 31.3906C35 32.4115 34.6536 33.2682 33.9609 33.9609C33.2682 34.6536 32.4115 35 31.3906 35ZM3.60938 21.1094C2.58854 21.1094 1.73177 20.763 1.03906 20.0703C0.346354 19.3776 0 18.5208 0 17.5C0 16.4792 0.346354 15.6224 1.03906 14.9297C1.73177 14.237 2.58854 13.8906 3.60938 13.8906C4.63021 13.8906 5.48698 14.237 6.17969 14.9297C6.8724 15.6224 7.21875 16.4792 7.21875 17.5C7.21875 18.5208 6.8724 19.3776 6.17969 20.0703C5.48698 20.763 4.63021 21.1094 3.60938 21.1094ZM17.5 21.1094C16.4792 21.1094 15.6224 20.763 14.9297 20.0703C14.237 19.3776 13.8906 18.5208 13.8906 17.5C13.8906 16.4792 14.237 15.6224 14.9297 14.9297C15.6224 14.237 16.4792 13.8906 17.5 13.8906C18.5208 13.8906 19.3776 14.237 20.0703 14.9297C20.763 15.6224 21.1094 16.4792 21.1094 17.5C21.1094 18.5208 20.763 19.3776 20.0703 20.0703C19.3776 20.763 18.5208 21.1094 17.5 21.1094ZM31.3906 21.1094C30.3698 21.1094 29.513 20.763 28.8203 20.0703C28.1276 19.3776 27.7812 18.5208 27.7812 17.5C27.7812 16.4792 28.1276 15.6224 28.8203 14.9297C29.513 14.237 30.3698 13.8906 31.3906 13.8906C32.4115 13.8906 33.2682 14.237 33.9609 14.9297C34.6536 15.6224 35 16.4792 35 17.5C35 18.5208 34.6536 19.3776 33.9609 20.0703C33.2682 20.763 32.4115 21.1094 31.3906 21.1094ZM3.60938 7.21875C2.58854 7.21875 1.73177 6.8724 1.03906 6.17969C0.346354 5.48698 0 4.63021 0 3.60938C0 2.58854 0.346354 1.73177 1.03906 1.03906C1.73177 0.346354 2.58854 0 3.60938 0C4.63021 0 5.48698 0.346354 6.17969 1.03906C6.8724 1.73177 7.21875 2.58854 7.21875 3.60938C7.21875 4.63021 6.8724 5.48698 6.17969 6.17969C5.48698 6.8724 4.63021 7.21875 3.60938 7.21875ZM17.5 7.21875C16.4792 7.21875 15.6224 6.8724 14.9297 6.17969C14.237 5.48698 13.8906 4.63021 13.8906 3.60938C13.8906 2.58854 14.237 1.73177 14.9297 1.03906C15.6224 0.346354 16.4792 0 17.5 0C18.5208 0 19.3776 0.346354 20.0703 1.03906C20.763 1.73177 21.1094 2.58854 21.1094 3.60938C21.1094 4.63021 20.763 5.48698 20.0703 6.17969C19.3776 6.8724 18.5208 7.21875 17.5 7.21875ZM31.3906 7.21875C30.3698 7.21875 29.513 6.8724 28.8203 6.17969C28.1276 5.48698 27.7812 4.63021 27.7812 3.60938C27.7812 2.58854 28.1276 1.73177 28.8203 1.03906C29.513 0.346354 30.3698 0 31.3906 0C32.4115 0 33.2682 0.346354 33.9609 1.03906C34.6536 1.73177 35 2.58854 35 3.60938C35 4.63021 34.6536 5.48698 33.9609 6.17969C33.2682 6.8724 32.4115 7.21875 31.3906 7.21875Z" fill="#545454"/>
</svg>
