<svg width="50" height="50" viewBox="0 0 50 50" fill="none" xmlns="http://www.w3.org/2000/svg">
<path d="M9.12501 45C7.95833 45 6.97917 44.6041 6.1875 43.8125C5.39583 43.0208 5 42.0417 5 40.875C5 39.7083 5.39583 38.7291 6.1875 37.9375C6.97917 37.1458 7.95833 36.7499 9.12501 36.7499C10.2917 36.7499 11.2708 37.1458 12.0625 37.9375C12.8542 38.7291 13.25 39.7083 13.25 40.875C13.25 42.0417 12.8542 43.0208 12.0625 43.8125C11.2708 44.6041 10.2917 45 9.12501 45ZM25 45C23.8334 45 22.8542 44.6041 22.0625 43.8125C21.2709 43.0208 20.875 42.0417 20.875 40.875C20.875 39.7083 21.2709 38.7291 22.0625 37.9375C22.8542 37.1458 23.8334 36.7499 25 36.7499C26.1666 36.7499 27.1458 37.1458 27.9375 37.9375C28.7291 38.7291 29.125 39.7083 29.125 40.875C29.125 42.0417 28.7291 43.0208 27.9375 43.8125C27.1458 44.6041 26.1666 45 25 45ZM40.875 45C39.7083 45 38.7291 44.6041 37.9375 43.8125C37.1458 43.0208 36.7499 42.0417 36.7499 40.875C36.7499 39.7083 37.1458 38.7291 37.9375 37.9375C38.7291 37.1458 39.7083 36.7499 40.875 36.7499C42.0417 36.7499 43.0208 37.1458 43.8125 37.9375C44.6041 38.7291 45 39.7083 45 40.875C45 42.0417 44.6041 43.0208 43.8125 43.8125C43.0208 44.6041 42.0417 45 40.875 45ZM9.12501 29.125C7.95833 29.125 6.97917 28.7291 6.1875 27.9375C5.39583 27.1458 5 26.1666 5 25C5 23.8334 5.39583 22.8542 6.1875 22.0625C6.97917 21.2709 7.95833 20.875 9.12501 20.875C10.2917 20.875 11.2708 21.2709 12.0625 22.0625C12.8542 22.8542 13.25 23.8334 13.25 25C13.25 26.1666 12.8542 27.1458 12.0625 27.9375C11.2708 28.7291 10.2917 29.125 9.12501 29.125ZM25 29.125C23.8334 29.125 22.8542 28.7291 22.0625 27.9375C21.2709 27.1458 20.875 26.1666 20.875 25C20.875 23.8334 21.2709 22.8542 22.0625 22.0625C22.8542 21.2709 23.8334 20.875 25 20.875C26.1666 20.875 27.1458 21.2709 27.9375 22.0625C28.7291 22.8542 29.125 23.8334 29.125 25C29.125 26.1666 28.7291 27.1458 27.9375 27.9375C27.1458 28.7291 26.1666 29.125 25 29.125ZM40.875 29.125C39.7083 29.125 38.7291 28.7291 37.9375 27.9375C37.1458 27.1458 36.7499 26.1666 36.7499 25C36.7499 23.8334 37.1458 22.8542 37.9375 22.0625C38.7291 21.2709 39.7083 20.875 40.875 20.875C42.0417 20.875 43.0208 21.2709 43.8125 22.0625C44.6041 22.8542 45 23.8334 45 25C45 26.1666 44.6041 27.1458 43.8125 27.9375C43.0208 28.7291 42.0417 29.125 40.875 29.125ZM9.12501 13.25C7.95833 13.25 6.97917 12.8542 6.1875 12.0625C5.39583 11.2708 5 10.2917 5 9.12501C5 7.95833 5.39583 6.97917 6.1875 6.1875C6.97917 5.39583 7.95833 5 9.12501 5C10.2917 5 11.2708 5.39583 12.0625 6.1875C12.8542 6.97917 13.25 7.95833 13.25 9.12501C13.25 10.2917 12.8542 11.2708 12.0625 12.0625C11.2708 12.8542 10.2917 13.25 9.12501 13.25ZM25 13.25C23.8334 13.25 22.8542 12.8542 22.0625 12.0625C21.2709 11.2708 20.875 10.2917 20.875 9.12501C20.875 7.95833 21.2709 6.97917 22.0625 6.1875C22.8542 5.39583 23.8334 5 25 5C26.1666 5 27.1458 5.39583 27.9375 6.1875C28.7291 6.97917 29.125 7.95833 29.125 9.12501C29.125 10.2917 28.7291 11.2708 27.9375 12.0625C27.1458 12.8542 26.1666 13.25 25 13.25ZM40.875 13.25C39.7083 13.25 38.7291 12.8542 37.9375 12.0625C37.1458 11.2708 36.7499 10.2917 36.7499 9.12501C36.7499 7.95833 37.1458 6.97917 37.9375 6.1875C38.7291 5.39583 39.7083 5 40.875 5C42.0417 5 43.0208 5.39583 43.8125 6.1875C44.6041 6.97917 45 7.95833 45 9.12501C45 10.2917 44.6041 11.2708 43.8125 12.0625C43.0208 12.8542 42.0417 13.25 40.875 13.25Z" fill="#545454"/>
</svg>
