<svg width="70" height="70" viewBox="0 0 70 70" fill="none" xmlns="http://www.w3.org/2000/svg">
<path d="M63.4375 1.64076H6.5625C5.27205 1.62762 4.02908 2.12695 3.10635 3.02918C2.18362 3.9314 1.65649 5.16283 1.64062 6.45326V63.5579C1.65936 64.8465 2.18775 66.0751 3.11017 66.975C4.03259 67.8748 5.27392 68.3727 6.5625 68.3595H63.4375C64.728 68.3697 65.9702 67.8687 66.8924 66.9659C67.8147 66.0631 68.3421 64.832 68.3594 63.5415V6.43685C68.3364 5.15021 67.8064 3.92465 66.8848 3.02657C65.9632 2.12848 64.7243 1.63046 63.4375 1.64076ZM21.4211 58.5158H11.5172V26.6493H21.4211V58.5158ZM16.4992 22.3072C15.3633 22.3082 14.2526 21.9724 13.3075 21.3421C12.3625 20.7118 11.6257 19.8154 11.1902 18.7662C10.7548 17.7171 10.6403 16.5623 10.8612 15.4481C11.0822 14.3338 11.6286 13.3102 12.4315 12.5066C13.2343 11.703 14.2575 11.1555 15.3715 10.9335C16.4855 10.7115 17.6404 10.8249 18.6899 11.2594C19.7395 11.6938 20.6366 12.4298 21.2678 13.3742C21.899 14.3186 22.2359 15.429 22.2359 16.565C22.2345 17.32 22.0842 18.0673 21.7936 18.7641C21.503 19.461 21.0779 20.0937 20.5425 20.626C20.0071 21.1583 19.372 21.5799 18.6735 21.8665C17.975 22.1531 17.2269 22.2991 16.4719 22.2962L16.4992 22.3072ZM58.5156 58.5158H48.6117V43.0119C48.6117 39.3204 48.5461 34.5681 43.4656 34.5681C38.3852 34.5681 37.5211 38.5931 37.5211 42.7712V58.5158H27.6336V26.6493H37.1273V31.0243H37.2586C38.582 28.5197 41.8086 25.8783 46.6266 25.8783C56.6562 25.8564 58.5156 32.4572 58.5156 41.0158V58.5158Z" fill="white"/>
</svg>
