<svg width="50" height="50" viewBox="0 0 50 50" fill="none" xmlns="http://www.w3.org/2000/svg">
<path d="M45.3125 1.17187H4.6875C3.76575 1.16249 2.87792 1.51916 2.21882 2.1636C1.55973 2.80805 1.18321 3.68764 1.17188 4.60937V45.3984C1.18526 46.3188 1.56268 47.1964 2.22155 47.8392C2.88042 48.4819 3.76708 48.8375 4.6875 48.8281H45.3125C46.2343 48.8354 47.1215 48.4776 47.7803 47.8327C48.439 47.1879 48.8158 46.3085 48.8281 45.3867V4.59765C48.8117 3.67863 48.4332 2.80323 47.7749 2.16174C47.1165 1.52025 46.2316 1.16452 45.3125 1.17187ZM15.3008 41.7969H8.22656V19.0352H15.3008V41.7969ZM11.7852 15.9336C10.9738 15.9344 10.1804 15.6945 9.50539 15.2443C8.83037 14.794 8.30406 14.1537 7.99302 13.4043C7.68199 12.6549 7.6002 11.8301 7.75802 11.0343C7.91584 10.2384 8.30617 9.50717 8.87963 8.93317C9.45308 8.35916 10.1839 7.96814 10.9796 7.80956C11.7754 7.65099 12.6003 7.73198 13.3499 8.04231C14.0996 8.35263 14.7404 8.87833 15.1913 9.55292C15.6422 10.2275 15.8828 11.0206 15.8828 11.832C15.8818 12.3713 15.7744 12.9051 15.5669 13.4028C15.3593 13.9006 15.0556 14.3525 14.6732 14.7328C14.2908 15.113 13.8371 15.4141 13.3382 15.6188C12.8393 15.8235 12.3049 15.9278 11.7656 15.9258L11.7852 15.9336ZM41.7969 41.7969H34.7227V30.7227C34.7227 28.0859 34.6758 24.6914 31.0469 24.6914C27.418 24.6914 26.8008 27.5664 26.8008 30.5508V41.7969H19.7383V19.0352H26.5195V22.1602H26.6133C27.5586 20.3711 29.8633 18.4844 33.3047 18.4844C40.4688 18.4687 41.7969 23.1836 41.7969 29.2969V41.7969Z" fill="#545454"/>
</svg>
