<svg width="50" height="50" viewBox="0 0 50 50" fill="none" xmlns="http://www.w3.org/2000/svg">
<path d="M24.5 48C18.25 48 12.9375 45.8125 8.5625 41.4375C4.1875 37.0625 2 31.75 2 25.5C2 19.25 4.1875 13.9375 8.5625 9.5625C12.9375 5.1875 18.25 3 24.5 3C24.8333 3 25.1875 3.01042 25.5625 3.03125C25.9375 3.05208 26.4167 3.08333 27 3.125C25.5 4.45833 24.3333 6.10417 23.5 8.0625C22.6667 10.0208 22.25 12.0833 22.25 14.25C22.25 18 23.5625 21.1875 26.1875 23.8125C28.8125 26.4375 32 27.75 35.75 27.75C37.9167 27.75 39.9792 27.3646 41.9375 26.5938C43.8958 25.8229 45.5417 24.75 46.875 23.375C46.9167 23.875 46.9479 24.2812 46.9688 24.5938C46.9896 24.9062 47 25.2083 47 25.5C47 31.75 44.8125 37.0625 40.4375 41.4375C36.0625 45.8125 30.75 48 24.5 48ZM24.5 44.25C29.0417 44.25 33 42.8438 36.375 40.0312C39.75 37.2188 41.8542 33.9167 42.6875 30.125C41.6458 30.5833 40.5277 30.9271 39.3331 31.1562C38.139 31.3854 36.9446 31.5 35.75 31.5C30.9713 31.5 26.9017 29.8196 23.5413 26.4587C20.1804 23.0983 18.5 19.0287 18.5 14.25C18.5 13.25 18.6042 12.1771 18.8125 11.0312C19.0208 9.88542 19.3958 8.58333 19.9375 7.125C15.8542 8.25 12.4688 10.5312 9.78125 13.9688C7.09375 17.4062 5.75 21.25 5.75 25.5C5.75 30.7083 7.57292 35.1354 11.2188 38.7812C14.8646 42.4271 19.2917 44.25 24.5 44.25Z" fill="white"/>
</svg>
