<svg width="50" height="50" viewBox="0 0 50 50" fill="none" xmlns="http://www.w3.org/2000/svg">
<path d="M25 45C19.4444 45 14.7222 43.0556 10.8333 39.1667C6.94444 35.2778 5 30.5556 5 25C5 19.4444 6.94444 14.7222 10.8333 10.8333C14.7222 6.94444 19.4444 5 25 5C25.2963 5 25.6111 5.00926 25.9444 5.02778C26.2778 5.0463 26.7037 5.07407 27.2222 5.11111C25.8889 6.29629 24.8518 7.75926 24.1111 9.5C23.3704 11.2407 23 13.0741 23 15C23 18.3333 24.1667 21.1667 26.5 23.5C28.8333 25.8333 31.6667 27 35 27C36.926 27 38.7593 26.6574 40.5 25.9723C42.2407 25.287 43.7037 24.3333 44.8889 23.1111C44.926 23.5556 44.9537 23.9166 44.9723 24.1945C44.9908 24.4722 45 24.7407 45 25C45 30.5556 43.0556 35.2778 39.1667 39.1667C35.2778 43.0556 30.5556 45 25 45ZM25 41.6667C29.0371 41.6667 32.5556 40.4167 35.5556 37.9166C38.5556 35.4167 40.426 32.4815 41.1667 29.1111C40.2407 29.5185 39.2468 29.8241 38.185 30.0277C37.1236 30.2315 36.0619 30.3333 35 30.3333C30.7523 30.3333 27.1348 28.8396 24.1478 25.8522C21.1604 22.8652 19.6667 19.2477 19.6667 15C19.6667 14.1111 19.7593 13.1574 19.9444 12.1389C20.1296 11.1204 20.4629 9.96296 20.9444 8.66667C17.3148 9.66667 14.3056 11.6944 11.9167 14.75C9.52778 17.8055 8.33333 21.2222 8.33333 25C8.33333 29.6296 9.95371 33.5648 13.1944 36.8055C16.4352 40.0463 20.3704 41.6667 25 41.6667Z" fill="#545454"/>
</svg>
