<svg width="45" height="45" viewBox="0 0 45 45" fill="none" xmlns="http://www.w3.org/2000/svg">
<path d="M22.5 45C16.25 45 10.9375 42.8125 6.5625 38.4375C2.1875 34.0625 0 28.75 0 22.5C0 16.25 2.1875 10.9375 6.5625 6.5625C10.9375 2.1875 16.25 0 22.5 0C22.8333 0 23.1875 0.0104167 23.5625 0.03125C23.9375 0.0520833 24.4167 0.0833333 25 0.125C23.5 1.45833 22.3333 3.10417 21.5 5.0625C20.6667 7.02083 20.25 9.08333 20.25 11.25C20.25 15 21.5625 18.1875 24.1875 20.8125C26.8125 23.4375 30 24.75 33.75 24.75C35.9167 24.75 37.9792 24.3646 39.9375 23.5938C41.8958 22.8229 43.5417 21.75 44.875 20.375C44.9167 20.875 44.9479 21.2812 44.9688 21.5938C44.9896 21.9062 45 22.2083 45 22.5C45 28.75 42.8125 34.0625 38.4375 38.4375C34.0625 42.8125 28.75 45 22.5 45ZM22.5 41.25C27.0417 41.25 31 39.8438 34.375 37.0312C37.75 34.2188 39.8542 30.9167 40.6875 27.125C39.6458 27.5833 38.5277 27.9271 37.3331 28.1562C36.139 28.3854 34.9446 28.5 33.75 28.5C28.9713 28.5 24.9017 26.8196 21.5413 23.4587C18.1804 20.0983 16.5 16.0287 16.5 11.25C16.5 10.25 16.6042 9.17708 16.8125 8.03125C17.0208 6.88542 17.3958 5.58333 17.9375 4.125C13.8542 5.25 10.4688 7.53125 7.78125 10.9688C5.09375 14.4062 3.75 18.25 3.75 22.5C3.75 27.7083 5.57292 32.1354 9.21875 35.7812C12.8646 39.4271 17.2917 41.25 22.5 41.25Z" fill="#545454"/>
</svg>
