<svg width="80" height="80" viewBox="0 0 80 80" fill="none" xmlns="http://www.w3.org/2000/svg">
<path d="M69.9997 42.6333C69.4753 48.3073 67.3459 53.7147 63.8605 58.2226C60.3751 62.7306 55.678 66.1527 50.3187 68.0885C44.9594 70.0243 39.1596 70.3937 33.598 69.1536C28.0364 67.9135 22.943 65.1151 18.9138 61.0859C14.8845 57.0567 12.0861 51.9633 10.846 46.4017C9.60592 40.8401 9.97539 35.0403 11.9112 29.681C13.847 24.3217 17.2691 19.6246 21.777 16.1392C26.285 12.6538 31.6923 10.5244 37.3663 10C34.0444 14.4942 32.4458 20.0315 32.8614 25.6047C33.2771 31.1779 35.6792 36.4169 39.631 40.3687C43.5828 44.3205 48.8217 46.7226 54.395 47.1382C59.9682 47.5538 65.5054 45.9553 69.9997 42.6333Z" stroke="white" stroke-width="4.33333" stroke-linecap="round" stroke-linejoin="round"/>
</svg>
