<svg width="100" height="100" viewBox="0 0 100 100" fill="none" xmlns="http://www.w3.org/2000/svg">
<path d="M17.7086 1.25H82.2914C92.0836 1.25 100 9.16641 100 18.9586V81.0414C100 90.8336 92.0836 98.75 82.2914 98.75H17.7086C7.91641 98.75 0 90.8336 0 81.0414V18.9586C0 9.16641 7.91641 1.25 17.7086 1.25Z" fill="#470137"/>
<path d="M52.5835 26.8751L40.0835 47.5001L53.4164 69.3751C53.4999 69.5415 53.5414 69.7087 53.4999 69.8751C53.4585 70.0415 53.2913 69.9165 53.0413 69.9587H43.4999C42.8335 69.9587 42.3749 69.9165 42.0835 69.5001C41.2085 67.7501 40.2914 66.0415 39.4164 64.2915C38.5413 62.5837 37.5835 60.8337 36.5835 59.0415C35.5835 57.2501 34.5835 55.4587 33.5835 53.6251H33.4999C32.6249 55.4165 31.6664 57.2087 30.7085 59.0001C29.7564 60.7739 28.8118 62.5517 27.8749 64.3337C26.9164 66.0837 25.9585 67.8751 24.9999 69.5837C24.8335 70.0001 24.4999 70.0415 24.0414 70.0415H14.8749C14.7085 70.0415 14.5835 70.1251 14.5835 69.9165C14.5649 69.8386 14.5626 69.7577 14.5769 69.6789C14.5911 69.6001 14.6216 69.5251 14.6664 69.4587L27.6249 48.2087L14.9999 26.8337C14.8749 26.6665 14.8335 26.5001 14.9164 26.4165C14.9999 26.2915 15.1664 26.2501 15.3335 26.2501H24.7914C24.9999 26.2501 25.2085 26.2915 25.3749 26.3337C25.5414 26.4165 25.6664 26.5415 25.7914 26.7087C26.5835 28.5001 27.4999 30.2915 28.4585 32.0837C29.4585 33.8751 30.4163 35.6251 31.4585 37.3751C32.4585 39.1251 33.3749 40.8751 34.2499 42.6665H34.3335C35.2085 40.8337 36.1249 39.0415 37.0413 37.2915C37.9585 35.5415 38.9164 33.7915 39.8749 32.0415C40.8335 30.2915 41.7499 28.5001 42.6663 26.7915C42.7085 26.6251 42.7913 26.4587 42.9163 26.3751C43.0835 26.2915 43.2499 26.2501 43.4585 26.2915H52.2499C52.2992 26.2804 52.3503 26.2792 52.4 26.2879C52.4498 26.2967 52.4973 26.3151 52.54 26.3423C52.5826 26.3694 52.6194 26.4047 52.6483 26.4461C52.6773 26.4876 52.6977 26.5343 52.7085 26.5837C52.7499 26.6251 52.6664 26.7915 52.5835 26.8751ZM71.8335 70.8337C68.7499 70.8751 65.6664 70.2501 62.8749 68.9587C60.2499 67.7501 58.0835 65.7501 56.5835 63.2915C55.0414 60.7501 54.2913 57.5837 54.2913 53.7915C54.2499 50.7087 55.0414 47.6665 56.5835 45.0001C58.1664 42.2915 60.4585 40.0415 63.2085 38.5415C66.1249 36.9165 69.6249 36.1251 73.7499 36.1251C73.9585 36.1251 74.2499 36.1251 74.6249 36.1665C74.9999 36.2087 75.4163 36.2087 75.9163 36.2501V23.0837C75.9163 22.7915 76.0413 22.6251 76.3335 22.6251H84.7913C84.9999 22.5837 85.1664 22.7501 85.2085 22.9165V62.6665C85.2085 63.4165 85.2499 64.2501 85.2913 65.1665C85.3749 66.0415 85.4164 66.8751 85.4585 67.5837C85.4585 67.8751 85.3335 68.1251 85.0413 68.2501C82.859 69.1673 80.5811 69.8381 78.2499 70.2501C76.1249 70.6251 73.9999 70.8337 71.8335 70.8337ZM75.9163 62.5001V44.1665C75.5413 44.0837 75.1663 44.0001 74.7914 43.9587C74.3345 43.9098 73.8757 43.8819 73.4163 43.8751C71.7913 43.8751 70.1663 44.2087 68.7085 44.9587C67.2845 45.6679 66.0653 46.729 65.1664 48.0415C64.2499 49.3751 63.7914 51.1665 63.7914 53.3337C63.7551 54.796 63.9955 56.252 64.4999 57.6251C64.9163 58.7501 65.5413 59.7501 66.3749 60.5837C67.1783 61.3502 68.1481 61.9206 69.2085 62.2501C70.3335 62.6251 71.4999 62.7915 72.6663 62.7915C73.2913 62.7915 73.8749 62.7501 74.4163 62.7087C74.9585 62.7501 75.4163 62.6665 75.9163 62.5001Z" fill="#FF61F6"/>
</svg>
