<svg width="100" height="100" viewBox="0 0 100 100" fill="none" xmlns="http://www.w3.org/2000/svg">
<path d="M90.1562 23.9844L52.4219 2.26562C51.7969 1.875 50.9375 1.71875 50 1.71875C49.0625 1.71875 48.2031 1.95313 47.5781 2.26562L10.0781 24.0625C8.75 24.8437 7.8125 26.7969 7.8125 28.2812V71.7969C7.8125 72.6562 7.96875 73.6719 8.59375 74.5312L92.0312 26.0937C91.5625 25.1562 90.8594 24.4531 90.1562 23.9844Z" fill="#9B4F96"/>
<path d="M8.35938 74.4531C8.75 75.0781 9.29688 75.625 9.84375 75.9375L47.5 97.7344C48.125 98.125 48.9844 98.2812 49.9219 98.2812C50.8594 98.2812 51.7187 98.0469 52.3437 97.7344L89.8437 75.9375C91.1719 75.1562 92.1094 73.2031 92.1094 71.7188V28.2031C92.1094 27.5 92.0312 26.7188 91.6406 26.0156L8.35938 74.4531Z" fill="#68217A"/>
<path d="M66.6406 59.4531C63.3594 65.2344 57.1094 69.1406 50 69.1406C39.4531 69.1406 30.8594 60.5469 30.8594 50C30.8594 39.4531 39.4531 30.8594 50 30.8594C57.1094 30.8594 63.3594 34.7656 66.6406 40.625L76.7969 34.7656C71.4844 25.4688 61.4844 19.1406 50 19.1406C32.9688 19.1406 19.1406 32.9688 19.1406 50C19.1406 67.0312 32.9688 80.8594 50 80.8594C61.4062 80.8594 71.4062 74.6094 76.7187 65.3906L66.6406 59.4531ZM75.7812 51.7187L76.4844 48.3594H73.2031V44.6875H77.1875L78.125 39.8438H81.9531L81.0156 44.6094H83.9844L84.9219 39.8438H88.6719L87.7344 44.6094H89.6094V48.2812H87.0312L86.3281 51.6406H89.6094V55.3125H85.625L84.6875 60H80.8594L81.7969 55.3125H78.8281L77.8906 60H74.1406L75.0781 55.3125H73.2031V51.6406H75.7812V51.7187ZM79.5313 51.7187H82.5L83.2031 48.3594H80.2344L79.5313 51.7187Z" fill="white"/>
</svg>
