<svg width="100" height="100" viewBox="0 0 100 100" fill="none" xmlns="http://www.w3.org/2000/svg">
<g clip-path="url(#clip0_23_145)">
<path d="M35.5469 100.781C44.8438 100.781 52.3438 93.2812 52.3438 83.9844V67.1875H35.5469C26.25 67.1875 18.75 74.6875 18.75 83.9844C18.75 93.2812 26.25 100.781 35.5469 100.781Z" fill="#0ACF83"/>
<path d="M18.75 50.3906C18.75 41.0938 26.25 33.5938 35.5469 33.5938H52.3438V67.1875H35.5469C26.25 67.1875 18.75 59.6875 18.75 50.3906Z" fill="#A259FF"/>
<path d="M18.75 16.7969C18.75 7.5 26.25 0 35.5469 0H52.3438V33.5938H35.5469C26.25 33.5938 18.75 26.0938 18.75 16.7969Z" fill="#F24E1E"/>
<path d="M52.3438 0H69.1406C78.4375 0 85.9375 7.5 85.9375 16.7969C85.9375 26.0938 78.4375 33.5938 69.1406 33.5938H52.3438V0Z" fill="#FF7262"/>
<path d="M85.9375 50.3906C85.9375 59.6875 78.4375 67.1875 69.1406 67.1875C59.8438 67.1875 52.3438 59.6875 52.3438 50.3906C52.3438 41.0938 59.8438 33.5938 69.1406 33.5938C78.4375 33.5938 85.9375 41.0938 85.9375 50.3906Z" fill="#1ABCFE"/>
</g>
<defs>
<clipPath id="clip0_23_145">
<rect width="100" height="100" fill="white"/>
</clipPath>
</defs>
</svg>
