<svg width="100" height="100" viewBox="0 0 100 100" fill="none" xmlns="http://www.w3.org/2000/svg">
<path d="M59.685 43.4967C57.5467 43.4967 55.9545 44.5467 55.9545 47.074C55.9545 48.9779 57.0037 50.2998 59.5701 50.2998C61.7451 50.2998 63.2232 49.0178 63.2232 46.9951C63.2232 44.7029 61.9006 43.4967 59.685 43.4967ZM55.4107 61.3404C54.9045 61.9615 54.3998 62.6217 54.3998 63.4006C54.3998 64.9545 56.3811 65.4217 59.1037 65.4217C61.3576 65.4217 64.4287 65.2639 64.4287 63.1678C64.4287 61.9217 62.9506 61.8451 61.0842 61.7279L55.4107 61.3404ZM66.9147 43.6139C67.6139 44.5084 68.3537 45.7521 68.3537 47.5404C68.3537 51.8545 64.9717 54.3811 60.0748 54.3811C58.8295 54.3811 57.7021 54.2264 57.0029 54.0318L55.7201 56.092L59.5287 56.324C66.2537 56.7529 70.2178 56.9475 70.2178 62.1154C70.2178 66.5865 66.2928 69.1115 59.5287 69.1115C52.4928 69.1115 49.8115 67.3232 49.8115 64.2537C49.8115 62.5037 50.5897 61.5732 51.9498 60.2881C50.6662 59.7459 50.2396 58.7748 50.2396 57.7248C50.2396 56.8693 50.667 56.092 51.367 55.3529C52.067 54.6154 52.8443 53.8756 53.7764 53.0209C51.8717 52.0881 50.4342 50.067 50.4342 47.1896C50.4342 42.7201 53.3881 39.6506 59.335 39.6506C61.0068 39.6506 62.0186 39.8045 62.9115 40.0396H70.492V43.3428L66.9147 43.6139ZM77.3303 36.5514C75.1139 36.5514 73.8311 35.2678 73.8311 33.0514C73.8311 30.8381 75.1139 29.6318 77.3303 29.6318C79.585 29.6318 80.867 30.8373 80.867 33.0514C80.8678 35.2678 79.585 36.5514 77.3303 36.5514ZM72.3147 59.9107V56.8412L74.2982 56.5693C74.842 56.4912 74.9193 56.3748 74.9193 55.7904V44.3631C74.9193 43.9365 74.8037 43.6631 74.4139 43.5475L72.3147 42.8084L72.742 39.6615H80.7897V55.7912C80.7897 56.4146 80.8271 56.4912 81.4115 56.5701L83.3943 56.842V59.9115L72.3147 59.9107ZM98.7654 58.4029C97.0928 59.2178 94.6451 59.9576 92.4279 59.9576C87.8029 59.9576 86.0545 58.0936 86.0545 53.699V43.5154C86.0545 43.2834 86.0545 43.1271 85.7428 43.1271H83.0225V39.6678C86.4443 39.2779 87.8037 37.5678 88.2311 33.3311H91.9248V38.8521C91.9248 39.1232 91.9248 39.2412 92.2357 39.2412H97.7162V43.1279H91.9248V52.417C91.9248 54.71 92.4693 55.6037 94.5678 55.6037C95.6576 55.6037 96.7834 55.3326 97.7162 54.9826L98.7654 58.4029Z" fill="#777777"/>
<path d="M41.1722 48.2029L23.3995 30.431C22.908 29.9396 22.2414 29.6636 21.5464 29.6636C20.8514 29.6636 20.1848 29.9396 19.6933 30.431L16.0027 34.1216L20.6831 38.8029C21.2335 38.6157 21.8253 38.5865 22.3914 38.7185C22.9576 38.8505 23.4754 39.1385 23.8862 39.5498C24.2995 39.9634 24.5881 40.485 24.7189 41.0548C24.8498 41.6247 24.8176 42.2199 24.6261 42.7724L29.1378 47.2841C29.8046 47.0518 30.5306 47.0529 31.1968 47.2872C31.8629 47.5215 32.4297 47.9751 32.8042 48.5737C33.1788 49.1724 33.3388 49.8805 33.2582 50.582C33.1776 51.2835 32.861 51.9369 32.3605 52.4349C31.8509 52.9455 31.18 53.2637 30.4622 53.3352C29.7444 53.4067 29.0239 53.2271 28.4236 52.8271C27.8233 52.4271 27.3802 51.8313 27.1698 51.1413C26.9595 50.4513 26.9948 49.7096 27.2698 49.0427L23.062 44.8349L23.0612 55.9084C23.5054 56.1277 23.8909 56.4497 24.1858 56.8477C24.4808 57.2457 24.6767 57.7082 24.7573 58.197C24.838 58.6857 24.801 59.1867 24.6495 59.6583C24.498 60.13 24.2364 60.5587 23.8862 60.9091C23.5597 61.2355 23.1649 61.4854 22.7301 61.6407C22.2953 61.7959 21.8315 61.8528 21.3721 61.8071C20.9127 61.7614 20.4692 61.6143 20.0735 61.3765C19.6778 61.1386 19.3399 60.8158 19.084 60.4315C18.8282 60.0472 18.6609 59.6109 18.5941 59.1541C18.5273 58.6973 18.5628 58.2314 18.6979 57.7899C18.833 57.3485 19.0644 56.9425 19.3754 56.6013C19.6864 56.2601 20.0693 55.9922 20.4964 55.8169V44.6412C20.1155 44.4852 19.7693 44.2553 19.4777 43.9648C19.1862 43.6743 18.955 43.3289 18.7976 42.9486C18.6402 42.5683 18.5597 42.1606 18.5607 41.749C18.5617 41.3374 18.6442 40.9301 18.8034 40.5505L14.1894 35.9349L2.00266 48.1209C1.75909 48.3643 1.56587 48.6534 1.43405 48.9716C1.30222 49.2897 1.23437 49.6308 1.23438 49.9751C1.23437 50.3195 1.30222 50.6606 1.43405 50.9787C1.56587 51.2969 1.75909 51.586 2.00266 51.8294L19.7753 69.6013C20.2671 70.0928 20.9339 70.3689 21.6292 70.3689C22.3245 70.3689 22.9913 70.0928 23.4831 69.6013L41.1722 51.9107C41.4157 51.6673 41.6089 51.3783 41.7407 51.0602C41.8726 50.7421 41.9404 50.4011 41.9404 50.0568C41.9404 49.7125 41.8726 49.3715 41.7407 49.0534C41.6089 48.7353 41.4157 48.4463 41.1722 48.2029Z" fill="#F34F29"/>
</svg>
