<svg width="100" height="100" viewBox="0 0 100 100" fill="none" xmlns="http://www.w3.org/2000/svg">
<path d="M21.7611 90.9017L15.4775 20.4243H84.5229L78.233 90.8907L49.958 98.729L21.7611 90.9017Z" fill="#E44D26"/>
<path d="M50 92.7375L72.8469 86.4031L78.2227 26.1875H50V92.7375Z" fill="#F16529"/>
<path d="M50.0004 52.3267H38.5621L37.773 43.4743H50.0004V34.8306H28.3262L28.5324 37.1501L30.6574 60.9696H50.0004V52.3267ZM50.0004 74.7743L49.9621 74.7845L40.3363 72.1845L39.7207 65.2915H31.0434L32.2543 78.8634L49.9605 83.779L50.0004 83.7673V74.7743Z" fill="#EBEBEB"/>
<path d="M21.9014 1.271H26.2936V5.61162H30.3123V1.271H34.7053V14.4132H30.3123V10.0124H26.2943V14.4132H21.9014V1.271ZM40.4811 5.62959H36.6139V1.271H48.7428V5.62959H44.874V14.4132H40.4811V5.62959ZM50.6678 1.271H55.2475L58.0654 5.88897L60.8803 1.271H65.4623V14.4132H61.0865V7.89912L58.0654 12.5718H57.9889L54.9654 7.89912V14.4132H50.667V1.271H50.6678ZM67.649 1.271H72.0428V10.0694H78.2201V14.414H67.649V1.271Z" fill="#555555"/>
<path d="M49.9707 52.3267V60.9696H60.6144L59.6113 72.1798L49.9707 74.7821V83.7743L67.691 78.8634L67.8207 77.4024L69.852 54.647L70.0629 52.3267H67.7332H49.9707ZM49.9707 34.8306V43.4743H70.8496L71.0223 41.5313L71.4168 37.1501L71.6238 34.8306H49.9707Z" fill="white"/>
</svg>
