<svg width="100" height="100" viewBox="0 0 100 100" fill="none" xmlns="http://www.w3.org/2000/svg">
<g clip-path="url(#clip0_63_598)">
<path d="M89.3066 43.1672C89.2663 43.1672 89.2269 43.1792 89.1934 43.2016L87.3605 44.2719C87.3261 44.2933 87.2977 44.3232 87.2783 44.3588C87.2588 44.3944 87.2489 44.4345 87.2496 44.475V46.6157C87.2496 46.7063 87.2926 46.775 87.3605 46.8204L89.1934 47.8891C89.2269 47.9114 89.2663 47.9233 89.3066 47.9233C89.347 47.9233 89.3864 47.9114 89.4199 47.8891L91.2496 46.8204C91.2845 46.7986 91.3132 46.7683 91.333 46.7324C91.3528 46.6964 91.3631 46.656 91.3629 46.6149V44.4766C91.3631 44.4359 91.3528 44.3958 91.3329 44.3602C91.3131 44.3246 91.2844 44.2947 91.2496 44.2735L89.4191 43.2024C89.3859 43.1801 89.3467 43.1673 89.3066 43.1672ZM49.3902 55.9672C49.0566 55.9672 48.7246 56.0485 48.4418 56.2079L39.4191 61.4633C39.1299 61.633 38.8901 61.8754 38.7237 62.1666C38.5573 62.4577 38.4701 62.7874 38.4707 63.1227V73.6094C38.4707 74.2922 38.8316 74.9297 39.4191 75.2719L41.7941 76.636C42.9473 77.2047 43.3543 77.2032 43.8738 77.2032C45.5691 77.2032 46.5418 76.1571 46.5418 74.3594V64.0118C46.5408 63.9397 46.5119 63.8709 46.4612 63.8198C46.4105 63.7686 46.3419 63.7392 46.2699 63.7375H45.1184C45.0461 63.7388 44.9771 63.7681 44.9261 63.8192C44.875 63.8704 44.8459 63.9395 44.8449 64.0118V74.3618C44.8449 75.1579 44.0098 75.9555 42.6762 75.2735L40.2113 73.8399C40.1207 73.7946 40.0746 73.679 40.0746 73.5883V63.0993C40.0746 63.0086 40.1207 62.8961 40.2113 62.85L49.2309 57.618C49.2988 57.5727 49.4129 57.5727 49.5035 57.618L58.5254 62.85C58.6152 62.8961 58.6598 62.986 58.6598 63.1V73.5875C58.6598 73.7008 58.6152 73.7938 58.5254 73.8391L49.5035 79.0946C49.4356 79.1399 49.3215 79.1399 49.2309 79.0946L46.9254 77.7047C46.8574 77.6594 46.7668 77.6368 46.6988 77.6821C46.066 78.0461 45.9551 78.0938 45.3441 78.2985C45.2082 78.3438 44.9824 78.4336 45.434 78.6836L48.4418 80.4821C48.7356 80.6407 49.0512 80.7313 49.3902 80.7313C49.7293 80.7313 50.0676 80.6415 50.3387 80.5282L59.3613 75.2727C59.6507 75.1024 59.8905 74.8594 60.0569 74.5677C60.2233 74.2761 60.3105 73.946 60.3098 73.6102V63.1227C60.3098 62.4399 59.9488 61.8047 59.3613 61.4633L50.3387 56.2079C50.0482 56.0481 49.7217 55.9653 49.3902 55.9672ZM63.4762 60.7563C63.0131 60.7582 62.5698 60.9438 62.2436 61.2724C61.9173 61.6009 61.7349 62.0456 61.7363 62.5086C61.7351 62.9715 61.9176 63.416 62.2438 63.7444C62.57 64.0728 63.0133 64.2583 63.4762 64.2602C64.427 64.2602 65.2168 63.4641 65.2168 62.5086C65.2144 62.0467 65.0305 61.6043 64.7049 61.2766C64.3794 60.949 63.9381 60.7616 63.4762 60.7563ZM63.4527 61.0524C63.6453 61.05 63.8365 61.0859 64.0151 61.1581C64.1937 61.2303 64.3561 61.3372 64.493 61.4727C64.6299 61.6082 64.7385 61.7696 64.8124 61.9474C64.8864 62.1253 64.9243 62.316 64.9238 62.5086C64.9238 63.3055 64.2676 63.9883 63.4535 63.9883C62.6629 63.9883 62.0066 63.3274 62.0066 62.5086C62.0066 61.6899 62.6848 61.0524 63.4527 61.0524ZM62.8207 61.5297V63.5313H63.2066V62.7375H63.5457C63.6816 62.7375 63.7262 62.7829 63.7488 62.8961C63.7488 62.9196 63.816 63.4196 63.816 63.5102H64.2223C64.177 63.4196 64.1543 63.1461 64.1316 62.9868C64.1098 62.7368 64.0879 62.5547 63.816 62.5321C63.952 62.486 64.1777 62.418 64.1777 62.054C64.1777 61.5305 63.7246 61.5305 63.4996 61.5305L62.8207 61.5297ZM63.1606 61.8485H63.4762C63.5902 61.8485 63.7699 61.8485 63.7699 62.1211C63.7699 62.2118 63.7262 62.3954 63.4762 62.3954H63.1598L63.1606 61.8485ZM51.8559 63.4188C49.2777 63.4188 47.7402 64.511 47.7402 66.354C47.7402 68.3336 49.2777 68.8774 51.7426 69.1282C54.7035 69.4243 54.9301 69.8571 54.9301 70.4485C54.9301 71.4719 54.1145 71.9047 52.2152 71.9047C49.8184 71.9047 49.2988 71.3125 49.1176 70.1071C49.1176 69.9704 49.0066 69.8805 48.8707 69.8805H47.6949C47.6231 69.8813 47.5545 69.9104 47.5039 69.9614C47.4533 70.0124 47.4248 70.0813 47.4246 70.1532C47.4246 71.7 48.2379 73.5204 52.1957 73.5204C55.0434 73.5204 56.6941 72.3813 56.6941 70.3797C56.6941 68.4227 55.3816 67.9 52.602 67.536C49.7973 67.1719 49.5043 66.9672 49.5043 66.3079C49.5043 65.7618 49.7527 65.0344 51.8324 65.0344C53.6863 65.0344 54.3863 65.4446 54.6582 66.6954C54.6718 66.7518 54.7036 66.8022 54.7486 66.8389C54.7936 66.8756 54.8494 66.8965 54.9074 66.8985H56.1051C56.1738 66.8985 56.2418 66.854 56.2879 66.8086C56.3299 66.7482 56.353 66.6767 56.3543 66.6032C56.1738 64.4196 54.7504 63.4188 51.8559 63.4188Z" fill="#5FA04E"/>
<path d="M67.2438 19.2688C67.1476 19.2678 67.0529 19.2917 66.9688 19.3384C66.8813 19.3893 66.8083 19.4619 66.757 19.5492C66.7057 19.6365 66.6778 19.7356 66.6758 19.8368V34.6251C66.6758 34.761 66.6055 34.8985 66.4704 34.9891C66.4079 35.0227 66.3381 35.0403 66.2672 35.0403C66.1963 35.0403 66.1265 35.0227 66.0641 34.9891L63.6688 33.6024C63.493 33.5017 63.294 33.4487 63.0914 33.4487C62.8889 33.4487 62.6898 33.5017 62.5141 33.6024L52.9297 39.1766C52.7524 39.2767 52.6046 39.4217 52.5013 39.5972C52.398 39.7726 52.3428 39.9723 52.3414 40.1759V51.3009C52.3414 51.7102 52.568 52.0977 52.9297 52.3024L62.5157 57.8766C62.6913 57.9772 62.8902 58.0302 63.0926 58.0302C63.295 58.0302 63.4939 57.9772 63.6696 57.8766L73.2547 52.3024C73.6164 52.0977 73.843 51.7102 73.843 51.3009V23.5688C73.843 23.1368 73.6164 22.7485 73.2547 22.5446L67.536 19.3384C67.4455 19.2929 67.345 19.2691 67.2438 19.2688ZM10.693 33.1485C10.5125 33.1485 10.3321 33.2141 10.1743 33.3048L0.588315 38.8587C0.408318 38.9614 0.258938 39.1102 0.155542 39.2898C0.0521462 39.4694 -0.00153095 39.6733 3.32337e-05 39.8806L0.0234707 54.804C0.0234707 55.0095 0.135189 55.2141 0.316439 55.3056C0.400318 55.3611 0.498673 55.3907 0.599252 55.3907C0.699831 55.3907 0.798186 55.3611 0.882064 55.3056L6.5805 52.0298C6.94222 51.8251 7.16644 51.4376 7.16644 51.0282V44.0438C7.16644 43.6345 7.393 43.247 7.7555 43.0423L10.1743 41.6321C10.3547 41.5181 10.5594 41.4727 10.7625 41.4727C10.9657 41.4727 11.1696 41.5181 11.3282 41.6321L13.7469 43.0423C14.1086 43.247 14.3352 43.6345 14.3352 44.0438V51.0282C14.3352 51.4376 14.5602 51.8251 14.9211 52.0298L20.5743 55.3056C20.6622 55.3612 20.7642 55.3908 20.8684 55.3908C20.9725 55.3908 21.0745 55.3612 21.1625 55.3056C21.2523 55.2564 21.327 55.1837 21.3788 55.0954C21.4305 55.0071 21.4573 54.9063 21.4563 54.804V39.8806C21.4563 39.4712 21.2297 39.0837 20.8672 38.8782L11.3047 33.3048C11.1439 33.2186 10.9676 33.1652 10.786 33.1477L10.693 33.1485ZM89.3391 33.3126C89.1414 33.3126 88.9453 33.3641 88.7641 33.4673L79.1766 39.0384C78.8149 39.2431 78.5907 39.6306 78.5907 40.0407V51.1657C78.5907 51.5751 78.8149 51.9626 79.1766 52.1673L88.6954 57.6259C88.8668 57.7264 89.0619 57.7794 89.2606 57.7794C89.4593 57.7794 89.6544 57.7264 89.8258 57.6259L95.5914 54.397C95.6811 54.3477 95.7556 54.275 95.8072 54.1867C95.8588 54.0983 95.8855 53.9977 95.8844 53.8954C95.8852 53.7934 95.8584 53.693 95.8068 53.605C95.7552 53.517 95.6808 53.4446 95.5914 53.3954L85.961 47.8204C85.8734 47.769 85.8004 47.6959 85.7492 47.6082C85.6979 47.5205 85.6699 47.4212 85.668 47.3196V43.8384C85.6669 43.7363 85.6935 43.6358 85.7451 43.5477C85.7968 43.4597 85.8714 43.3873 85.961 43.3384L88.9688 41.6087C89.0568 41.5531 89.1588 41.5236 89.2629 41.5236C89.3671 41.5236 89.469 41.5531 89.5571 41.6087L92.5618 43.3376C92.6497 43.3888 92.723 43.4618 92.7747 43.5495C92.8264 43.6371 92.8548 43.7366 92.8571 43.8384V46.5688C92.8571 46.7743 92.9696 46.979 93.15 47.0696C93.2381 47.1255 93.3403 47.1551 93.4446 47.1551C93.5489 47.1551 93.651 47.1255 93.7391 47.0696L99.4352 43.7259C99.6099 43.6239 99.7543 43.4774 99.8537 43.3013C99.9531 43.1251 100.004 42.9257 100.001 42.7235V40.0165C100.001 39.6071 99.7743 39.222 99.4352 39.0165L89.9164 33.4665C89.7408 33.366 89.5422 33.3127 89.3399 33.3118L89.3391 33.3126ZM63.0914 41.6204C63.1422 41.6204 63.1938 41.6321 63.2399 41.6556L66.5164 43.5665C66.6071 43.6118 66.6532 43.7243 66.6532 43.8157V47.6376C66.6532 47.7516 66.6071 47.8438 66.5164 47.8891L63.2391 49.8001C63.1931 49.8225 63.1426 49.8342 63.0914 49.8342C63.0403 49.8342 62.9898 49.8225 62.9438 49.8001L59.6664 47.8891C59.5758 47.8438 59.5297 47.729 59.5297 47.6376V43.8157C59.5297 43.7016 59.5766 43.6118 59.6664 43.5657L62.9438 41.6556C62.9899 41.6325 63.0399 41.6204 63.0914 41.6204Z" fill="#555555"/>
<path d="M37.4857 33.5102C37.3102 33.4096 37.1114 33.3567 36.9091 33.3567C36.7068 33.3567 36.5081 33.4096 36.3326 33.5102L26.8138 39.0391C26.6391 39.1407 26.4947 39.2869 26.3953 39.4628C26.2959 39.6387 26.2451 39.8379 26.2482 40.0399V51.1188C26.2482 51.529 26.4747 51.9157 26.8138 52.1204L36.3326 57.6485C36.5081 57.7491 36.7068 57.802 36.9091 57.802C37.1114 57.802 37.3102 57.7491 37.4857 57.6485L47.0036 52.1204C47.3654 51.9157 47.5693 51.529 47.5693 51.1188V40.0399C47.5693 39.6305 47.3427 39.243 47.0036 39.0391L37.4857 33.5102Z" fill="url(#paint0_linear_63_598)"/>
<path d="M47.0264 39.0392L37.4631 33.5103C37.3692 33.4627 37.2708 33.4247 37.1693 33.397L26.4521 51.847C26.5428 51.961 26.6553 52.0517 26.7686 52.1204L36.3326 57.6485C36.6037 57.8079 36.9201 57.8532 37.2139 57.7618L47.2756 39.2438C47.2094 39.1573 47.1241 39.0873 47.0264 39.0392Z" fill="url(#paint1_linear_63_598)"/>
<path d="M47.027 52.1195C47.2988 51.9601 47.502 51.6874 47.5926 51.3913L37.1238 33.3734C36.8535 33.3281 36.559 33.3507 36.3105 33.5101L26.8145 39.0156L37.0566 57.807C37.1918 57.7843 37.3504 57.739 37.4863 57.6703L47.027 52.1195Z" fill="url(#paint2_linear_63_598)"/>
</g>
<defs>
<linearGradient id="paint0_linear_63_598" x1="40.7852" y1="37.6272" x2="32.0923" y2="55.2505" gradientUnits="userSpaceOnUse">
<stop stop-color="#3F873F"/>
<stop offset="0.33" stop-color="#3F8B3D"/>
<stop offset="0.637" stop-color="#3E9638"/>
<stop offset="0.934" stop-color="#3DA92E"/>
<stop offset="1" stop-color="#3DAE2B"/>
</linearGradient>
<linearGradient id="paint1_linear_63_598" x1="35.4627" y1="46.8732" x2="59.7168" y2="29.0631" gradientUnits="userSpaceOnUse">
<stop offset="0.138" stop-color="#3F873F"/>
<stop offset="0.402" stop-color="#52A044"/>
<stop offset="0.713" stop-color="#64B749"/>
<stop offset="0.908" stop-color="#6ABF4B"/>
</linearGradient>
<linearGradient id="paint2_linear_63_598" x1="25.9006" y1="45.5755" x2="47.9259" y2="45.5755" gradientUnits="userSpaceOnUse">
<stop offset="0.092" stop-color="#6ABF4B"/>
<stop offset="0.287" stop-color="#64B749"/>
<stop offset="0.598" stop-color="#52A044"/>
<stop offset="0.862" stop-color="#3F873F"/>
</linearGradient>
<clipPath id="clip0_63_598">
<rect width="100" height="100" fill="white"/>
</clipPath>
</defs>
</svg>
