<svg width="100" height="100" viewBox="0 0 100 100" fill="none" xmlns="http://www.w3.org/2000/svg">
<g clip-path="url(#clip0_58_576)">
<mask id="mask0_58_576" style="mask-type:alpha" maskUnits="userSpaceOnUse" x="-1" y="0" width="101" height="100">
<path fill-rule="evenodd" clip-rule="evenodd" d="M70.9118 99.3172C71.7075 99.6274 72.5586 99.7706 73.412 99.7378C74.2655 99.705 75.1031 99.497 75.8727 99.1266L96.461 89.2195C97.5212 88.7091 98.4159 87.9098 99.042 86.9134C99.6681 85.9171 100 84.7642 100 83.5875V16.4133C100 15.2364 99.6683 14.0834 99.0422 13.0869C98.4161 12.0904 97.5214 11.2909 96.461 10.7805L75.8727 0.874989C74.7093 0.315228 73.4007 0.130928 72.128 0.347597C70.8553 0.564265 69.6814 1.17119 68.7688 2.08436L29.3547 38.0422L12.1875 25.0101C11.4131 24.4222 10.4573 24.1238 9.48591 24.1669C8.51452 24.21 7.58887 24.5918 6.86957 25.2461L1.36332 30.2547C0.934214 30.645 0.591296 31.1205 0.3565 31.6509C0.121703 32.1813 0.000198272 32.7548 -0.000242935 33.3349C-0.000684142 33.9149 0.119948 34.4887 0.353938 35.0194C0.587927 35.5502 0.930121 36.0262 1.35863 36.4172L16.2469 50L1.35941 63.5836C0.931136 63.9746 0.589147 64.4506 0.355303 64.9813C0.121459 65.512 0.000904504 66.0856 0.00134567 66.6655C0.00178683 67.2454 0.123214 67.8188 0.357865 68.3491C0.592516 68.8794 0.935229 69.355 1.3641 69.7453L6.87035 74.7539C7.58948 75.4084 8.51511 75.7905 9.48654 75.8337C10.458 75.8769 11.4139 75.5787 12.1883 74.9906L29.3555 61.9594L68.7696 97.9164C69.379 98.5269 70.108 99.0039 70.9118 99.3172ZM75.0149 27.2992L45.1094 50L75.0157 72.7016L75.0149 27.2992Z" fill="white"/>
</mask>
<g mask="url(#mask0_58_576)">
<path d="M96.4617 10.7969L75.857 0.875027C74.6932 0.314895 73.384 0.130395 72.1108 0.347066C70.8375 0.563736 69.663 1.17086 68.75 2.0844L1.29841 63.5836C0.869816 63.9744 0.527538 64.4504 0.293487 64.9811C0.0594359 65.5118 -0.0612311 66.0855 -0.0607898 66.6655C-0.0603486 67.2455 0.0611911 67.8191 0.296049 68.3494C0.530908 68.8797 0.87391 69.3552 1.3031 69.7453L6.81247 74.7539C7.53225 75.4084 8.45837 75.7904 9.43025 75.8336C10.4021 75.8769 11.3585 75.5786 12.1336 74.9907L93.3609 13.3696C96.0859 11.3024 100 13.2461 100 16.6664V16.4274C99.9999 15.2509 99.6678 14.0983 99.0419 13.1021C98.416 12.106 97.5216 11.3074 96.4617 10.7969Z" fill="#0065A9"/>
<g filter="url(#filter0_d_58_576)">
<path d="M96.4617 89.2037L75.857 99.124C74.6934 99.6844 73.3843 99.8691 72.111 99.6527C70.8377 99.4363 69.6632 98.8295 68.75 97.9162L1.29841 36.4162C0.869816 36.0254 0.527538 35.5495 0.293487 35.0188C0.0594359 34.4881 -0.0612311 33.9143 -0.0607898 33.3343C-0.0603486 32.7543 0.0611911 32.1808 0.296049 31.6504C0.530908 31.1201 0.87391 30.6447 1.3031 30.2545L6.81247 25.2459C7.53225 24.5914 8.45837 24.2095 9.43025 24.1662C10.4021 24.123 11.3585 24.4212 12.1336 25.0092L93.3609 86.6295C96.0859 88.6975 100 86.7537 100 83.3334V83.5725C99.9999 84.749 99.6678 85.9016 99.0419 86.8977C98.416 87.8939 97.5216 88.6932 96.4617 89.2037Z" fill="#007ACC"/>
</g>
<g filter="url(#filter1_d_58_576)">
<path d="M75.8578 99.1265C74.6937 99.6863 73.3845 99.8705 72.1111 99.6537C70.8378 99.4369 69.6633 98.8298 68.75 97.9164C71.0562 100.223 75 98.589 75 95.3273V4.67184C75 1.41012 71.0562 -0.223477 68.75 2.08355C69.6633 1.17012 70.8378 0.563022 72.1111 0.346226C73.3845 0.12943 74.6937 0.313646 75.8578 0.873398L96.4586 10.7812C97.5194 11.2913 98.4146 12.0907 99.0411 13.0872C99.6677 14.0837 100 15.2369 100 16.414V83.5875C100 84.7646 99.6677 85.9178 99.0411 86.9143C98.4146 87.9108 97.5194 88.7102 96.4586 89.2203L75.8578 99.1265Z" fill="#1F9CF0"/>
</g>
<path style="mix-blend-mode:overlay" opacity="0.25" fill-rule="evenodd" clip-rule="evenodd" d="M70.8516 99.3172C71.6472 99.6273 72.4982 99.7704 73.3515 99.7377C74.2048 99.7049 75.0423 99.4968 75.8118 99.1266L96.4 89.2195C97.4604 88.7091 98.3552 87.9096 98.9812 86.9131C99.6073 85.9166 99.9394 84.7636 99.9391 83.5867V16.4133C99.9394 15.2364 99.6073 14.0834 98.9812 13.0869C98.3552 12.0904 97.4604 11.2909 96.4 10.7805L75.8118 0.874989C74.6484 0.315228 73.3398 0.130928 72.0671 0.347597C70.7944 0.564265 69.6205 1.17119 68.7079 2.08436L29.2938 38.0422L12.1266 25.0109C11.3522 24.4229 10.3964 24.1246 9.42498 24.1677C8.45359 24.2108 7.52794 24.5926 6.80864 25.2469L1.30239 30.2555C0.873396 30.6458 0.530574 31.1214 0.295846 31.6518C0.0611189 32.1821 -0.0603486 32.7557 -0.0607898 33.3357C-0.061231 33.9157 0.0593639 34.4894 0.293284 35.0201C0.527205 35.5509 0.869302 36.027 1.2977 36.418L16.186 50L1.29849 63.5828C0.869977 63.9737 0.527783 64.4498 0.293793 64.9806C0.059804 65.5113 -0.0608285 66.085 -0.0603873 66.6651C-0.0599461 67.2451 0.0615591 67.8187 0.296356 68.3491C0.531152 68.8795 0.87407 69.355 1.30317 69.7453L6.80942 74.7539C7.52863 75.4083 8.45423 75.7902 9.42562 75.8335C10.397 75.8767 11.3529 75.5785 12.1274 74.9906L29.2954 61.9586L68.7094 97.9164C69.3186 98.5268 70.0481 99.0039 70.8516 99.3172ZM74.9547 27.2984L45.0485 50L74.9547 72.7008V27.2984Z" fill="url(#paint0_linear_58_576)"/>
</g>
</g>
<defs>
<filter id="filter0_d_58_576" x="-8.39413" y="15.8288" width="116.727" height="92.2453" filterUnits="userSpaceOnUse" color-interpolation-filters="sRGB">
<feFlood flood-opacity="0" result="BackgroundImageFix"/>
<feColorMatrix in="SourceAlpha" type="matrix" values="0 0 0 0 0 0 0 0 0 0 0 0 0 0 0 0 0 0 127 0" result="hardAlpha"/>
<feOffset/>
<feGaussianBlur stdDeviation="4.16667"/>
<feColorMatrix type="matrix" values="0 0 0 0 0 0 0 0 0 0 0 0 0 0 0 0 0 0 0.25 0"/>
<feBlend mode="overlay" in2="BackgroundImageFix" result="effect1_dropShadow_58_576"/>
<feBlend mode="normal" in="SourceGraphic" in2="effect1_dropShadow_58_576" result="shape"/>
</filter>
<filter id="filter1_d_58_576" x="60.4167" y="-8.07553" width="47.9167" height="116.151" filterUnits="userSpaceOnUse" color-interpolation-filters="sRGB">
<feFlood flood-opacity="0" result="BackgroundImageFix"/>
<feColorMatrix in="SourceAlpha" type="matrix" values="0 0 0 0 0 0 0 0 0 0 0 0 0 0 0 0 0 0 127 0" result="hardAlpha"/>
<feOffset/>
<feGaussianBlur stdDeviation="4.16667"/>
<feColorMatrix type="matrix" values="0 0 0 0 0 0 0 0 0 0 0 0 0 0 0 0 0 0 0.25 0"/>
<feBlend mode="overlay" in2="BackgroundImageFix" result="effect1_dropShadow_58_576"/>
<feBlend mode="normal" in="SourceGraphic" in2="effect1_dropShadow_58_576" result="shape"/>
</filter>
<linearGradient id="paint0_linear_58_576" x1="49.9393" y1="0.257725" x2="49.9393" y2="99.7422" gradientUnits="userSpaceOnUse">
<stop stop-color="white"/>
<stop offset="1" stop-color="white" stop-opacity="0"/>
</linearGradient>
<clipPath id="clip0_58_576">
<rect width="100" height="100" fill="white"/>
</clipPath>
</defs>
</svg>
